<svg xmlns="http://www.w3.org/2000/svg" width="289" height="57" fill="none" viewBox="0 0 289 57"><mask id="a" width="289" height="57" x="0" y="0" maskUnits="userSpaceOnUse" style="mask-type:luminance"><path fill="#fff" d="M.333.91H289v55.513H.333V.91Z"/></mask><g fill="#fff" mask="url(#a)"><path d="M149.199 18.334v3.217h-3.967V18.12c0-3.378-1.342-5.415-4.398-5.415-3.001 0-4.396 2.037-4.396 5.415v19.84c0 3.378 1.395 5.414 4.396 5.414 3.056 0 4.398-2.035 4.398-5.415v-7.506h-3.862V26.7h7.829v11.046c0 5.684-2.681 9.437-8.471 9.437-5.738 0-8.419-3.753-8.419-9.438v-19.41c0-5.684 2.681-9.437 8.419-9.437 5.79 0 8.471 3.753 8.471 9.437Zm8.69 17.319h8.363l-4.234-21.661-4.129 21.661Zm-.537 3.593-1.448 7.56h-3.861l7.187-37.534h6.057l7.187 37.534h-4.183l-1.449-7.56h-9.49Zm32.229 7.506h-4.022l-6.22-29.866v29.92h-3.646V9.272h5.844l6.166 29.974 5.953-29.974h5.844v37.534h-3.968V16.619l-5.951 30.133Zm22.844-3.753c3.056 0 4.45-1.609 4.45-5.095V34.58c0-4.182-1.662-5.577-5.254-5.577h-3.647v13.995h4.451Zm-1.234-17.802c3.325 0 5.04-1.073 5.04-4.986v-2.199c0-3.324-1.125-4.933-4.127-4.933h-4.13v12.118h3.217Zm1.02-15.925c5.844 0 8.149 2.79 8.149 8.312v1.769c0 3.968-1.125 6.434-4.397 7.452 3.646 1.02 5.041 3.914 5.041 8.043v3.164c0 5.63-2.735 8.793-8.579 8.793h-8.633V9.272h8.419Zm12.602 37.534V9.272h4.183V43h10.724v3.807h-14.907Zm31.424-20.912v3.754h-9.169V43h11.259v3.807h-15.442V9.272h15.442v3.807h-11.259v12.815h9.169Zm13.245 1.073c3.326 0 5.309-1.073 5.309-5.147v-3.593c0-3.377-1.233-5.148-4.344-5.148h-4.075v13.888h3.11Zm1.072-17.695c5.898 0 8.366 3.003 8.366 8.58v3.056c0 4.129-1.448 6.702-4.666 7.722 3.432 1.018 4.72 3.805 4.72 7.827v5.845c0 1.662.052 3.216.749 4.504h-4.235c-.483-1.073-.697-2.037-.697-4.558V36.35c0-4.236-1.983-5.576-5.47-5.576h-2.949v16.032h-4.183V9.272h8.365Z"/></g><path fill="#CA262B" d="M15.763 35.995h8.364l-4.235-21.661-4.13 21.66Zm-.536 3.593-1.447 7.56H9.918l7.184-37.534h6.06l7.184 37.533h-4.183l-1.447-7.56h-9.49Zm31.208-12.494V30.9h-8.632v16.248H33.62V9.614h14.907v3.807H37.803v13.673h8.633Zm18.233 0V30.9h-8.632v16.248h-4.183V9.614H66.76v3.807H56.036v13.673h8.632Z"/><mask id="b" width="289" height="57" x="0" y="0" maskUnits="userSpaceOnUse" style="mask-type:luminance"><path fill="#fff" d="M.333.91H289v55.513H.333V.91Z"/></mask><g mask="url(#b)"><path fill="#B2222D" d="M118.894 19.264c.098.808.109 1.647.029 2.512-.082.883-.261 1.79-.54 2.715a16.967 16.967 0 0 1-1.17 2.868 20.57 20.57 0 0 1-.934 1.616c-.073.115-.15.23-.226.345-.065.099-.129.197-.197.297-.153.22-.31.441-.473.663a29.48 29.48 0 0 1-.421.553l-.072.091-.071.088-.062.078-.043.052-.035.043a.045.045 0 0 1-.01.011c-.002.005-.005.007-.008.011l-.008.01-.009.011-.033.04-.035.042-.033.042-.035.04-.033.042a.568.568 0 0 0-.035.04 1.022 1.022 0 0 1-.034.04l-.035.042a.037.037 0 0 0-.008.011c-.005.003-.007.007-.01.01a1.067 1.067 0 0 0-.018.022l-.033.039-.034.039a8.47 8.47 0 0 1-.068.078c-.014.016-.028.031-.04.047l-.04.045c-.013.014-.025.03-.038.043-.012.016-.025.03-.037.043l-.006.006-.004.006-.005.005-.005.006a26.174 26.174 0 0 1-1.65 1.71l-.021.019c-.191.182-.385.36-.582.538l-.089.084c-.841.75-1.731 1.46-2.664 2.126a33.985 33.985 0 0 1-2.926 1.866 35.073 35.073 0 0 1-9.499 3.688c-.341.076-.682.148-1.024.213l-.001-.002a31.58 31.58 0 0 1-4.089.509c-.064.003-.129.01-.193.012a25.704 25.704 0 0 1-3.958-.11 20.762 20.762 0 0 1-3.576-.697 16.341 16.341 0 0 1-3.09-1.245c-.027-.014-.052-.03-.079-.043l-.001-.003c-.17-.092-.339-.186-.502-.283-.003-.001-.005-.001-.006-.003a14.03 14.03 0 0 1-.95-.617c-.153-.109-.302-.22-.447-.333l-.003-.003a.003.003 0 0 1-.003-.003l-.003-.001-.004-.003-.062-.049-.061-.05-.061-.048c-.021-.017-.04-.034-.062-.05a.023.023 0 0 0-.007-.006l-.006-.007a.025.025 0 0 1-.007-.005l-.007-.006c-.01-.008-.02-.017-.03-.023l-.029-.025-.029-.025a33398823912.946 33398823912.946 0 0 0-.058-.048l-.028-.026a6.468 6.468 0 0 0-.029-.025l-.028-.023-.007-.007a.025.025 0 0 1-.007-.006l-.005-.005a.025.025 0 0 1-.007-.006c-.024-.02-.043-.038-.06-.051l-.058-.053-.058-.053-.057-.053a11.24 11.24 0 0 1-.383-.37c-.09-.09-.172-.182-.257-.274-.049-.052-.099-.105-.146-.16a8.352 8.352 0 0 1-.23-.268l-.08-.096a12.96 12.96 0 0 1-.28-.36c-.04-.054-.083-.108-.122-.162a8.91 8.91 0 0 1-.279-.41l2.604 4.03c.093.142.19.285.291.427.04.057.084.112.125.168.063.084.124.17.189.252.032.042.068.084.101.125a.549.549 0 0 0 .027.034l.055.066c.052.063.102.128.156.19l.081.092.048.055.102.113c.045.048.086.098.132.147-.002-.006-.007-.01-.01-.014.002 0 .002.002.002.002l.011.015.03.032.03.032.03.032.03.031c.002 0 .002.002.003.003l.003.003a.12.12 0 0 0 .003.003l.004.004a.972.972 0 0 0 .04.041l.042.044.042.041.041.042-.007-.011.028.029.008.011.046.046.047.046.048.045.047.046.003.003.058.056c.02.017.04.035.06.055l.06.054.059.056.007.005.007.006.005.007a.496.496 0 0 1 .036.032l.03.025.029.026.029.026.03.025.03.027.029.025.029.026.008.005.007.008c.002 0 .004.002.007.005.003.001.004.004.007.006l.061.052.063.053.062.051.064.052.003.002.002.003c.002 0 .003.002.003.003l.004.002c.147.12.299.237.451.352.052.037.106.073.157.111l.004.007c.11.079.221.157.334.233.113.076.227.153.342.226a3.496 3.496 0 0 0 .125.078l.003.001a11.968 11.968 0 0 0 .584.35 16.85 16.85 0 0 0 3.09 1.344c1.12.362 2.309.627 3.545.793 1.26.17 2.565.238 3.903.202a27.613 27.613 0 0 0 3.153-.267c.351-.048.7-.101 1.045-.162l-.001-.003c.333-.06.667-.123 1.002-.194a34.12 34.12 0 0 0 1.024-.236 30.43 30.43 0 0 0 2.044-.583 32.368 32.368 0 0 0 6.166-2.724 30.832 30.832 0 0 0 2.827-1.838 28.721 28.721 0 0 0 2.969-2.491c.082-.078.162-.158.243-.239.002-.002.007-.005.009-.01l.009-.008c.044-.043.09-.086.133-.13.13-.13.258-.262.384-.394l.024-.025.001-.003a20.33 20.33 0 0 0 .35-.373v-.003l.182-.196c.075-.084.147-.17.222-.255v.002a.408.408 0 0 1 .025-.028l.012-.013.011-.014v-.003c.08-.091.16-.182.238-.274.003-.002.004-.003.005-.006l.005-.006a.032.032 0 0 1 .005-.005l.004-.006a.632.632 0 0 0 .036-.043.606.606 0 0 0 .036-.043l.038-.046.04-.047.032-.039.032-.038.032-.04.032-.038.008-.011.008-.011c.003-.005.007-.007.01-.011l.009-.012a1.02 1.02 0 0 0 .066-.082l.032-.04.033-.041.032-.04.034-.042a.581.581 0 0 1 .031-.042c.012-.014.021-.028.032-.04l.009-.011.008-.011a.063.063 0 0 0 .008-.01l.009-.011c.002-.004.007-.008.009-.013a.723.723 0 0 0 .025-.033l.032-.04.006-.008.001-.002c.009-.011.017-.02.025-.032l.035-.046.001-.001.003-.004.064-.084.062-.083a27.916 27.916 0 0 0 .383-.53v.002l.025-.037a23.503 23.503 0 0 0 .442-.652l.009-.015c.064-.1.125-.2.188-.301.06-.096.122-.192.18-.289.013-.02.022-.039.035-.058.087-.147.172-.296.255-.443l.06-.101-.001-.003c.202-.362.395-.724.569-1.087.469-.978.831-1.954 1.092-2.914.255-.944.413-1.872.477-2.779a12.64 12.64 0 0 0-.078-2.59l-.784-2.268-.803-2.33Z"/><path fill="#997504" d="M120.381 23.256a11.374 11.374 0 0 0-.433-1.645l-1.553-4.516a10.869 10.869 0 0 1 .298 1.04 10.876 10.876 0 0 1 .194 1.097l1.587 4.598a.057.057 0 0 1-.003-.018l.005.017-.004-.03-.004-.029-.004-.029-.004-.029-.01-.03c-.022-.143-.043-.285-.069-.426Z"/><path fill="#fff" d="M110.644 23.377c-1.177 14.147-13.37 14.08-18.364 13.874-4.934-.206-9.837-3.87-10.754-8.582-.919-4.714 1.597-10.755 5.882-12.635 23.831-10.463 23.545 3.62 23.236 7.343Z"/><path fill="#89A8A3" d="M116.612 28.435a21.391 21.391 0 0 1-1.193 1.797 26.69 26.69 0 0 1-.6.78l-.062.078a1.025 1.025 0 0 1-.044.053l-.034.043-.009.01a.04.04 0 0 1-.009.01l-.009.012a.068.068 0 0 1-.008.01l-.033.041a.649.649 0 0 1-.035.042l-.033.04a.447.447 0 0 1-.035.041l-.033.04a4.101 4.101 0 0 0-.113.133l-.009.012-.01.011-.008.011c-.011.013-.023.025-.034.04l-.033.038-.033.039-.035.039-.04.047-.039.044-.039.045-.037.043-.006.005-.004.006-.006.005a25.897 25.897 0 0 1-1.079 1.152l-.012.013a29.021 29.021 0 0 1-1.167 1.109l-.089.083 2.027 4.817c.136-.126.27-.253.404-.382l.242-.238.01-.01.008-.008c.045-.045.091-.088.134-.132.13-.13.258-.261.386-.394.006-.007.013-.016.022-.024l.003-.003c.002-.004.006-.007.009-.01.115-.122.228-.24.339-.363v-.003c.06-.065.122-.13.182-.197.075-.083.147-.17.222-.254l.001.002.011-.014.013-.014a.132.132 0 0 0 .012-.014c.004-.004.009-.008.013-.014l-.002-.003.239-.273.004-.006.004-.005.006-.006.004-.005a.63.63 0 0 0 .036-.043l.036-.043.038-.046.04-.047.032-.04.032-.038a.95.95 0 0 1 .032-.039c.009-.014.02-.026.032-.04a.063.063 0 0 1 .008-.01l.008-.011.01-.011.008-.011a15.123 15.123 0 0 1 .067-.082c.011-.014.021-.028.032-.04l.033-.042.032-.042.033-.04.032-.041.032-.042.009-.01.008-.011.008-.01a.077.077 0 0 1 .009-.01l.009-.015v.002a5.793 5.793 0 0 1 .057-.074l.006-.008.001-.002c.008-.01.017-.02.025-.032.011-.015.024-.03.035-.047l.001-.001a4.639 4.639 0 0 0 .067-.086l.062-.083.007-.01a22.639 22.639 0 0 0 .843-1.209 20.036 20.036 0 0 0 .727-1.207l-1.81-4.798ZM80.583 40.622a13.699 13.699 0 0 1-1.905-1.237l-.003-.003-.003-.002-.003-.002c-.001-.001-.002-.003-.004-.003l-.062-.05-.061-.048-.061-.05-.062-.05a.023.023 0 0 1-.007-.006l-.006-.005-.007-.006-.007-.005-.03-.025-.029-.024a3.493 3.493 0 0 0-.029-.025l-.029-.025-.029-.023-.028-.026-.029-.024a.464.464 0 0 1-.035-.031l-.007-.005-.005-.006-.007-.006-.06-.052-.058-.052a2.125 2.125 0 0 0-.058-.053 12.166 12.166 0 0 1-.44-.423 16 16 0 0 1-.257-.273c-.049-.053-.099-.107-.146-.16a11.316 11.316 0 0 1-.23-.269l-.08-.096a12.96 12.96 0 0 1-.28-.36c-.04-.053-.083-.107-.122-.162a9.739 9.739 0 0 1-.279-.41l2.604 4.029c.093.144.19.287.291.428.04.056.084.111.125.168.063.085.124.17.189.253.032.041.068.082.101.123.009.011.017.024.027.035l.055.065c.052.064.102.128.156.192l.081.09a1.69 1.69 0 0 0 .15.168c.045.05.086.099.132.147-.002-.004-.007-.008-.01-.014a.004.004 0 0 1 .002.003l.011.014.03.032.03.032.03.032.03.032c.002 0 .002.002.003.004l.003.002.003.003.004.003.04.043.042.042.042.041c.014.016.027.03.041.043l-.007-.01.028.027.008.012.046.046.047.046.048.046.047.046.003.001a1.994 1.994 0 0 0 .118.111l.06.056.059.054.007.007.007.005.005.006a52926389600.129 52926389600.129 0 0 0 .065.058l.03.026a6.468 6.468 0 0 1 .089.078l.029.025.029.025.008.007.007.005.007.008a.024.024 0 0 1 .007.005c.02.018.042.035.061.053l.063.051.062.053a10.394 10.394 0 0 1 .067.054l.002.001a.12.12 0 0 0 .003.003l.004.003a13.879 13.879 0 0 0 1.413 1.008c.168.104.337.205.51.302l-2.686-4.231Zm19.159.491a35.327 35.327 0 0 1-2.098.618 32.005 32.005 0 0 1-2.074.47l-.001-.004a31.558 31.558 0 0 1-4.09.51l2.594 4.524h-.003a29.26 29.26 0 0 0 4.012-.42l-.001-.003a28.933 28.933 0 0 0 2.026-.43 30.069 30.069 0 0 0 2.044-.583c-.802-1.56-1.605-3.122-2.409-4.682Zm20.639-17.857a11.374 11.374 0 0 0-.433-1.645l-1.553-4.516a10.869 10.869 0 0 1 .298 1.04 10.876 10.876 0 0 1 .194 1.097l1.587 4.598a.057.057 0 0 1-.003-.018l.005.017-.004-.03-.004-.029-.004-.029-.004-.029-.01-.03c-.022-.143-.043-.285-.069-.426Z"/><path fill="#CA262B" d="M103.253 22.982c.722 3.706-2.047 6.737-6.186 6.77-4.138.034-8.078-2.945-8.801-6.65-.722-3.706 2.047-6.737 6.185-6.77 4.139-.033 8.08 2.945 8.802 6.65Z"/><path fill="#B51C27" d="m106.72 28.01-.238-.112-.096.102-.142.151-.146.148-.149.149c-.05.05-.1.099-.151.147l-.101.1.223.125.103-.1.154-.15.15-.151.15-.153.147-.155.096-.102Zm-21.263-8.73-.078.078.155.054.078-.078.117-.115c.039-.037.078-.075.116-.114l.12-.112.12-.113.08-.075-.146-.06-.08.074-.123.114-.122.115-.12.117c-.04.037-.078.076-.117.115Zm-1.22 13.402.078.06.21-.193-.079-.061a3.9 3.9 0 0 1-.117-.09 3.604 3.604 0 0 1-.114-.09l-.113-.093-.11-.095-.072-.065-.217.186.075.064a8.253 8.253 0 0 0 .223.191c.037.03.076.063.117.093.038.032.079.063.119.093Zm1.427.876.095.047.188-.215-.099-.046-.141-.072c-.048-.025-.095-.048-.14-.073a4.205 4.205 0 0 1-.14-.077l-.135-.076-.092-.053-.197.207.092.051c.045.028.091.054.138.08l.14.077.145.076.146.074Zm1.035-15.406.132.07.086-.07.13-.107.13-.104.131-.104c.044-.035.088-.07.132-.103l.09-.07-.123-.077-.09.068-.135.105-.133.106c-.045.035-.09.07-.134.107l-.132.108-.084.07Zm21.31 8.28.073-.106-.258-.079-.075.107a7.278 7.278 0 0 1-.113.155l-.117.157-.121.155-.122.157-.083.104.25.092.084-.104.125-.16.121-.16.119-.159.117-.16Zm-2.128-12.223-.087-.04-.181.143.085.04.128.061.125.064c.041.02.083.043.123.064l.122.066.082.045.193-.14-.083-.045a1.936 1.936 0 0 0-.124-.067 3.103 3.103 0 0 0-.126-.065l-.128-.064-.129-.062Zm-3.938-1.05-.114.153.105.012.154.019c.052.005.103.012.154.02l.153.02.153.024.101.015.122-.153-.101-.015a4.656 4.656 0 0 0-.156-.023 4.895 4.895 0 0 0-.155-.023l-.155-.02-.156-.019-.105-.01Zm3.103 16.445-.203-.144-.112.093-.171.14-.171.137-.173.136-.175.135-.119.09.186.16.12-.092a27.875 27.875 0 0 0 .532-.418l.173-.143.113-.094Zm-20.763-9.036-.068.083.177.032.067-.082.1-.122a7.576 7.576 0 0 1 .208-.241l.105-.121.071-.08-.168-.04-.07.078-.109.124c-.036.04-.07.082-.105.122a4.08 4.08 0 0 0-.104.123c-.035.04-.07.082-.104.124Zm-1.18 11.057.061.07.226-.17-.06-.07-.09-.105c-.027-.036-.056-.07-.086-.107l-.083-.108a2.255 2.255 0 0 1-.082-.108l-.053-.073-.231.159.052.073c.027.038.055.075.084.111l.084.111.088.108.09.109Zm4.531 2.391-.114-.032-.167-.05-.164-.053-.164-.054-.161-.055-.107-.04-.17.224.108.04.165.057c.055.02.11.038.166.056l.168.054c.057.017.113.035.17.051l.113.032.157-.23Zm.514-16.97.11.088.094-.065.14-.095.143-.096.141-.093.143-.093.096-.061-.098-.095-.096.061-.147.095-.145.096a8.283 8.283 0 0 0-.144.097l-.143.097-.094.064Zm20.909 7.662.054-.108-.278-.04-.053.106c-.026.053-.054.106-.081.158l-.086.159-.089.16-.092.157-.061.106.271.058.062-.108a6.57 6.57 0 0 0 .183-.325c.029-.054.059-.108.086-.162.03-.053.056-.107.084-.161Zm-1.877-9.75-.075-.05-.206.13.073.055c.038.026.074.053.11.08.037.025.073.052.109.08.037.026.071.054.107.082.035.027.07.055.104.084l.071.057.217-.129-.07-.057c-.034-.029-.071-.057-.107-.086-.034-.028-.072-.056-.108-.083-.036-.028-.073-.054-.111-.082a3.286 3.286 0 0 0-.114-.08Zm-3.501-1.508-.097-.024-.142.153.099.022.144.036.144.038.145.038.143.042.095.026.056.019c.047.013.094.029.141.044l.139.044.138.048c.045.016.091.031.136.048l.091.035.165-.15-.093-.032a3.595 3.595 0 0 0-.138-.048l-.141-.05-.141-.045a7.256 7.256 0 0 1-.144-.044l-.059-.018-.094-.028-.146-.042-.147-.039a15.517 15.517 0 0 0-.147-.037l-.147-.036Zm-3.454-.375-.086.154h.109l.16.002.161.002.159.005.161.007.107.002.095-.154-.109-.004a4.314 4.314 0 0 0-.162-.005l-.162-.006c-.055 0-.109-.002-.163-.003h-.27Zm2.879 17.982-.162-.179-.128.085a17.61 17.61 0 0 1-.386.244 7.72 7.72 0 0 1-.194.12c-.065.04-.13.078-.197.117l-.133.08.146.188.133-.079.201-.12a14.296 14.296 0 0 0 .594-.374l.126-.082Zm-19.816-9.129-.056.086.196.013.055-.088.084-.128.084-.127c.03-.042.057-.085.086-.127l.09-.127.059-.083-.188-.021-.058.084c-.032.043-.06.086-.091.13a7.09 7.09 0 0 0-.09.129l-.087.129-.084.13Zm-1.01 8.488.04.08.24-.144-.042-.078c-.02-.04-.042-.079-.061-.119l-.06-.118-.055-.12a9.892 9.892 0 0 1-.054-.119l-.034-.08-.238.132.034.08a1.9 1.9 0 0 0 .053.124l.055.122.06.12.063.12Zm7.28 3.976-.13-.015-.187-.027a7.41 7.41 0 0 1-.37-.058c-.061-.011-.122-.02-.183-.032l-.123-.023-.133.238.122.023c.063.01.125.022.188.033.062.011.125.02.188.032l.19.029.19.026.128.016.12-.242Zm.154-18.337.084.102.102-.056c.05-.03.1-.057.15-.085.05-.03.1-.057.15-.083l.15-.084.153-.082.103-.054-.075-.108-.102.054-.156.082-.153.085-.154.085-.152.087-.1.057Zm20.04 6.936.032-.103-.285-.007-.033.103a4.64 4.64 0 0 1-.049.156 3.838 3.838 0 0 1-.052.156c-.018.053-.038.106-.057.157-.018.053-.039.106-.058.157l-.042.107.286.02.04-.106a3.46 3.46 0 0 0 .058-.161 4.994 4.994 0 0 0 .11-.32c.018-.052.035-.105.05-.159Zm-1.466-7.09-.062-.066-.23.121.061.063.09.097a6.212 6.212 0 0 1 .173.197 3.5 3.5 0 0 1 .085.101l.056.068.241-.112-.057-.07c-.028-.033-.057-.068-.086-.1a2.498 2.498 0 0 0-.089-.102 4.056 4.056 0 0 0-.182-.197Zm-9.832-2.729-.054.15.112-.01.164-.015.162-.014.164-.012.164-.01.11-.007.065-.152-.11.006a1285.062 1285.062 0 0 0-.335.024c-.055.004-.11.008-.166.014-.056.004-.111.01-.167.015l-.11.011Zm2.494 19.144-.12-.204-.137.068-.207.104-.208.1-.21.1-.21.096-.143.065.1.212.14-.064c.073-.032.144-.065.216-.098l.214-.1.212-.104.214-.104.139-.071Zm-18.453-8.974-.043.088.213-.01.042-.092.063-.13a11.512 11.512 0 0 1 .204-.394l.046-.088-.206.003-.045.087a6.474 6.474 0 0 0-.073.134c-.023.044-.045.09-.069.134l-.067.134-.065.134Zm-.738 5.753.025.084.241-.116-.023-.085-.034-.126-.03-.128-.028-.126-.026-.128-.016-.087-.241.107.015.086c.009.044.017.087.027.13l.027.13.03.13.033.129Zm9.916 5.403h-.14c-.068.002-.136.002-.204.002l-.202-.002a8.782 8.782 0 0 1-.2-.006 6.564 6.564 0 0 1-.2-.007l-.135-.005-.092.247.135.005c.068.003.136.006.204.007a9.79 9.79 0 0 0 .41.008h.348l.076-.25Zm-.304-19.312.058.118.104-.049c.053-.023.106-.048.158-.072l.159-.072a7.76 7.76 0 0 1 .158-.07 7.76 7.76 0 0 1 .158-.069l.107-.045-.05-.123-.104.046a23.905 23.905 0 0 0-.322.142c-.054.023-.107.048-.161.072l-.16.073-.105.049Zm18.724 6.145.011-.1-.288.024-.011.1c-.004.05-.01.1-.016.15l-.02.15-.024.15-.025.152-.019.103.287-.013.018-.102a4.61 4.61 0 0 0 .026-.156c.009-.051.017-.102.024-.154l.021-.152.016-.152Zm-.978-4.381-.253.1.048.076.066.113.065.113a8.555 8.555 0 0 1 .124.23l.039.081.261-.094-.041-.08a6.69 6.69 0 0 0-.194-.35l-.069-.114-.046-.075Zm-12.456-3.508-.025.144.113-.021.165-.032.165-.029a4.79 4.79 0 0 0 .166-.028l.166-.026.11-.017.037-.148-.113.018-.168.026-.168.03-.169.028-.168.032-.11.022Zm1.985 19.897-.07-.225-.145.054-.217.08-.216.076-.217.074-.218.073-.147.048.049.233.148-.048.222-.074.222-.078a3.9 3.9 0 0 0 .221-.079c.075-.026.149-.052.222-.08l.146-.054Zm-16.72-8.548-.027.09.226-.037.027-.09c.013-.045.029-.09.043-.135l.044-.135.046-.134c.015-.045.032-.089.048-.133l.034-.09-.22.029-.033.088c-.016.046-.035.092-.05.136a5.365 5.365 0 0 0-.048.138l-.046.136c-.014.046-.03.091-.043.137Zm-.388 2.903.007.088.24-.089-.005-.087-.006-.132-.004-.133-.001-.132v-.132l.002-.09-.238.08-.005.089v.135l.002.134c.001.045.001.09.004.135l.004.134Zm12.359 6.873.032-.247-.146.018-.215.028-.215.025-.213.022-.213.02-.142.013-.047.249.141-.013.218-.02.218-.023.22-.025.219-.028.143-.02Zm-.802-20.11.031.128.109-.04.162-.06.163-.058.163-.057.164-.055.11-.037-.023-.133-.108.038-.166.056-.165.059-.167.058-.165.061-.108.04Zm17 5.303-.009-.093-.281.054.01.095.013.139.009.141a1578.218 1578.218 0 0 0 .013.283l.001.099.285-.045v-.097l-.007-.144a2.383 2.383 0 0 0-.009-.146c-.002-.047-.007-.096-.011-.143-.004-.047-.008-.095-.014-.143Zm-15.227-5.888.002.137.11-.03.166-.046.165-.045c.055-.014.11-.027.166-.043l.164-.041.113-.027.007-.14-.112.027a5.878 5.878 0 0 0-.167.043 6.232 6.232 0 0 0-.168.043l-.168.044-.17.046-.108.032Zm1.4 20.224-.017-.24-.146.036-.22.055c-.075.016-.147.034-.22.05-.072.018-.146.033-.218.05l-.22.047-.146.03v.243l.147-.03a13.675 13.675 0 0 0 .447-.098l.224-.05.224-.056.145-.037Zm13.507-15.778-.028-.084-.269.077.029.086c.014.042.028.085.04.127a3.215 3.215 0 0 1 .075.26l.033.13.025.087.274-.07-.021-.088-.036-.133-.039-.132a6.73 6.73 0 0 0-.083-.26ZM81.6 26.25l-.011.09.233-.063.011-.09.02-.134a5.31 5.31 0 0 1 .022-.135l.023-.135.024-.134.018-.09-.23.054-.018.09-.027.136a4.694 4.694 0 0 0-.023.137c-.009.046-.016.09-.023.136l-.019.138Zm6.2-7.003c-1.055.952-1.892 1.962-2.5 2.985-.622 1.045-1.009 2.11-1.146 3.138-.14 1.057-.018 2.08.391 3.003.42.95 1.146 1.796 2.197 2.456 1.082.68 2.402 1.097 3.86 1.254 1.491.16 3.112.05 4.755-.315 1.659-.37 3.32-.994 4.866-1.846 1.542-.85 2.948-1.915 4.108-3.157 1.141-1.222 1.922-2.486 2.362-3.713.428-1.196.529-2.348.328-3.394a5.183 5.183 0 0 0-1.412-2.678c-.716-.73-1.676-1.312-2.863-1.704-1.156-.38-2.426-.544-3.734-.522a16.159 16.159 0 0 0-3.939.58 18.484 18.484 0 0 0-3.83 1.519 17.27 17.27 0 0 0-3.442 2.394Zm-5.322 15.725a8.991 8.991 0 0 1-1.404-1.275 8.311 8.311 0 0 1-.379-.46l-3.39 3.219a9.668 9.668 0 0 1-1.615-3.223 10.052 10.052 0 0 1-.327-1.699 10.981 10.981 0 0 1-.043-1.724l3.799-.922a8.817 8.817 0 0 1 .013-1.148c.03-.381.082-.767.159-1.154a11.952 11.952 0 0 1 .712-2.303l-3.58.918a17.85 17.85 0 0 1 .807-1.671c.3-.547.635-1.091 1.002-1.63.363-.531.759-1.06 1.186-1.58.422-.515.877-1.025 1.362-1.527l2.097 1.045c.147-.166.3-.332.455-.495a20.909 20.909 0 0 1 1.504-1.443 24.177 24.177 0 0 1 2.236-1.734l-2.157-.897a32.46 32.46 0 0 1 3.614-2.21 33.392 33.392 0 0 1 3.811-1.708l-.056 2.032a27.668 27.668 0 0 1 2.74-.931 26.086 26.086 0 0 1 2.791-.616l-.127-1.993a29.32 29.32 0 0 1 2-.31c.671-.08 1.342-.136 2.008-.166.671-.032 1.34-.036 2.004-.014.67.022 1.335.074 1.99.154l-2.265 2.151a16.124 16.124 0 0 1 1.916.327 13.091 13.091 0 0 1 1.236.349c.201.067.397.136.588.21a13.172 13.172 0 0 1 1.105.49l2.286-2.277a14.51 14.51 0 0 1 1.639.811c.52.303 1.007.633 1.46.988.457.362.879.752 1.264 1.166.39.42.74.867 1.048 1.34l-4.147 1.062a7.687 7.687 0 0 1 .949 2.098 8.298 8.298 0 0 1 .301 2.423l4.459-1.082c.06.625.066 1.267.013 1.927a12.769 12.769 0 0 1-.336 2.05 15.006 15.006 0 0 1-.713 2.155 18.11 18.11 0 0 1-1.119 2.226l-4.027-1.673a18.572 18.572 0 0 1-.912 1.392c-.17.232-.346.465-.532.697a19.755 19.755 0 0 1-1.89 2.04 25.182 25.182 0 0 1-1.443 1.256l4.006 1.996a29.497 29.497 0 0 1-2.455 1.955 32.007 32.007 0 0 1-2.688 1.725 33.546 33.546 0 0 1-5.826 2.636l-.27-4.226a26.317 26.317 0 0 1-3.893 1.131c-.647.134-1.293.241-1.93.32-.636.08-1.267.13-1.887.154l-.117 4.25c-.964.057-1.91.061-2.834.011a21.91 21.91 0 0 1-2.653-.304 18.37 18.37 0 0 1-2.431-.605 15.342 15.342 0 0 1-2.171-.89l3.496-3.483a12.245 12.245 0 0 1-1.287-.602 9.643 9.643 0 0 1-1.151-.729Z"/><path fill="#fff" d="M92.34 11.35a32.905 32.905 0 0 1 2.651-.87 31.275 31.275 0 0 1 2.697-.636l.127 1.991c-.466.076-.934.165-1.4.268a26.495 26.495 0 0 0-2.77.777c-.457.154-.91.322-1.362.503l.057-2.032ZM82.69 17a33.52 33.52 0 0 1 1.099-.895 32.07 32.07 0 0 1 1.127-.836l2.156.897c-.193.133-.384.269-.575.406a27.664 27.664 0 0 0-1.118.866 24.443 24.443 0 0 0-1.57 1.416 19.7 19.7 0 0 0-.932.984l-2.097-1.045a27.467 27.467 0 0 1 1.408-1.353c.165-.147.332-.295.503-.44Zm20.735-5.342 2.266-2.15a22.655 22.655 0 0 1 1.225.186 17.925 17.925 0 0 1 1.215.264 18.185 18.185 0 0 1 1.247.36 17.022 17.022 0 0 1 1.177.44l-2.285 2.277a12.297 12.297 0 0 0-1.692-.702 15.567 15.567 0 0 0-1.237-.347c-.208-.05-.419-.095-.631-.135a16.82 16.82 0 0 0-1.285-.193ZM76.422 25.201l3.582-.919c-.161.384-.301.767-.42 1.148-.12.386-.219.772-.294 1.155a9.85 9.85 0 0 0-.158 1.156 8.812 8.812 0 0 0-.014 1.148l-3.798.92c.02-.385.06-.772.118-1.16.057-.385.133-.77.226-1.158a15.576 15.576 0 0 1 .758-2.29Zm9.867-6.501a21.067 21.067 0 0 1 4.209-2.928c1.5-.798 3.09-1.426 4.687-1.859a19.814 19.814 0 0 1 4.817-.709c1.601-.026 3.156.175 4.568.639 1.453.478 2.629 1.192 3.505 2.085a6.35 6.35 0 0 1 1.726 3.276c.246 1.28.122 2.69-.402 4.152-.537 1.502-1.492 3.046-2.887 4.541-1.42 1.521-3.141 2.824-5.027 3.864a22.61 22.61 0 0 1-5.952 2.258c-2.01.445-3.993.581-5.816.384-1.785-.193-3.398-.7-4.723-1.533-1.287-.808-2.174-1.842-2.688-3.006-.5-1.129-.651-2.38-.478-3.674.167-1.257.641-2.56 1.402-3.839.742-1.25 1.765-2.487 3.059-3.651Zm25.531-2.576 4.147-1.063a9.601 9.601 0 0 1 1.04 2.102 10.182 10.182 0 0 1 .523 2.4l-4.459 1.084a8.732 8.732 0 0 0-.064-1.25 7.738 7.738 0 0 0-1.187-3.273ZM80.696 33.237a8.314 8.314 0 0 0 .8.903 9.226 9.226 0 0 0 1.541 1.212 10.385 10.385 0 0 0 1.22.666c.215.1.436.196.66.285l-3.497 3.484a13.709 13.709 0 0 1-1.85-1.13 11.148 11.148 0 0 1-1.892-1.74 9.743 9.743 0 0 1-.373-.462l3.39-3.218Zm28.621-4.205a18.701 18.701 0 0 0 1.118-1.392 17.498 17.498 0 0 0 .911-1.392l4.028 1.672a22.282 22.282 0 0 1-2.148 3.002 25.462 25.462 0 0 1-1.942 2.055c-.232.22-.468.437-.708.65l-4.006-1.993a24.065 24.065 0 0 0 2.115-1.918c.216-.225.427-.453.632-.684Zm-17.69 8.293c.62-.024 1.25-.075 1.886-.154a25.173 25.173 0 0 0 3.88-.806c.651-.19 1.3-.404 1.943-.646l.271 4.226a32.96 32.96 0 0 1-4.09 1.106 29.092 29.092 0 0 1-4.007.523l.117-4.249Z"/><path fill="#B8242A" d="m103.904 15.262-7.164 3.822-6.86-1.92 1.003 5.947-5.846 5.119 7.817-.107 3.239 5.135 3.81-6.007 7.942-1.968-5.521-3.565 1.58-6.456Z"/><path fill="#CA262B" d="m103.904 15.262-7.164 3.822-6.168-1.736c-.251.11-.368.289-.619.398l.93 5.366-5.846 5.118 5.488-.128c1.603-1.084 3.228-2.337 4.637-2.981 3.282-1.588 5.619-2.828 7.355-3.422l-.173-.15 1.56-6.287Zm3.29 9.498c.076.16.018.25.093.411l.444-.13-.537-.28Z"/><path fill="#997504" d="m76.984 37.771.079.09c-.024-.027-.049-.054-.07-.08l-.01-.01Zm-2.249-9.424c-.022.11-.039.222-.058.333.023-.136.047-.273.076-.41-.005.026-.012.05-.018.077Z"/><path fill="#CA262B" d="M88.677 41.584a22.007 22.007 0 0 1-2.655-.303 18.276 18.276 0 0 1-2.431-.605 15.43 15.43 0 0 1-2.17-.889c-.221-.11-.438-.227-.649-.35a12.944 12.944 0 0 1-1.202-.778 11.966 11.966 0 0 1-1.482-1.29 11.28 11.28 0 0 1-.783-.913 9.597 9.597 0 0 1-1.615-3.222 9.919 9.919 0 0 1-.326-1.7 10.995 10.995 0 0 1-.043-1.725 12.325 12.325 0 0 1 .344-2.318 14.3 14.3 0 0 1 .329-1.15c.126-.38.27-.76.427-1.14a17.7 17.7 0 0 1 .81-1.67c.3-.547.634-1.091 1.002-1.63.363-.533.757-1.06 1.185-1.582a25.001 25.001 0 0 1 1.815-1.983 29.397 29.397 0 0 1 3.683-3.066 32.363 32.363 0 0 1 3.612-2.21 33.25 33.25 0 0 1 5.131-2.174 33.023 33.023 0 0 1 2.676-.755 30.821 30.821 0 0 1 3.353-.598 27.98 27.98 0 0 1 2.007-.167c.673-.03 1.342-.036 2.004-.014a23.054 23.054 0 0 1 2.606.24 20.915 20.915 0 0 1 1.827.365c.213.055.424.111.631.171a15.952 15.952 0 0 1 1.213.4c.197.073.39.15.58.229l.65-.651c-.152-.06-.306-.117-.461-.172a15.671 15.671 0 0 0-.949-.312 16.945 16.945 0 0 0-.49-.14h-.004c-.002 0-.003 0-.005-.002l-.005-.001h-.004a.428.428 0 0 0-.036-.01.381.381 0 0 0-.038-.01l-.037-.01a.273.273 0 0 0-.041-.01l-.031-.009a1.716 1.716 0 0 1-.034-.008l-.032-.009-.033-.008c-.003-.001-.006-.001-.008-.003l-.01-.001c-.003-.001-.006-.003-.01-.003l-.008-.003-.035-.008a1.716 1.716 0 0 0-.034-.008l-.034-.009a1.649 1.649 0 0 1-.034-.008l-.035-.008a.93.93 0 0 1-.07-.017l-.034-.008-.009-.002-.009-.002-.009-.002-.009-.003-.073-.016-.073-.017-.075-.017a14.867 14.867 0 0 0-.586-.12c-.069-.014-.138-.025-.208-.038l-.171-.03c-.044-.007-.087-.016-.13-.024a21.736 21.736 0 0 0-.512-.078l-.061-.008a568.635 568.635 0 0 1-.453-.06l-.004.005a25.53 25.53 0 0 0-4.648-.113c-1.326.086-2.67.278-4.009.546v-.012c-.214.043-.427.096-.641.143-.176.04-.354.077-.53.118-.057.014-.114.025-.171.04a31.2 31.2 0 0 0-1.146.303c-.061.018-.124.03-.185.049-.064.018-.128.041-.19.06a33.19 33.19 0 0 0-1.131.35c-.052.016-.104.037-.156.055-.172.057-.344.12-.514.181-.213.075-.427.145-.638.224v.011a35.186 35.186 0 0 0-3.773 1.665 34.107 34.107 0 0 0-4.14 2.536l-.01-.004a25.196 25.196 0 0 0-.36.262 19.402 19.402 0 0 0-.519.39 34.351 34.351 0 0 0-.865.686l.004-.003a1.867 1.867 0 0 0-.074.061l-.06.05-.061.051-.062.052-.007.005-.007.006-.006.005a.025.025 0 0 1-.007.006l-.03.025-.029.025a7.565 7.565 0 0 0-.06.05l-.029.025-.029.025-.029.025a52926389600.148 52926389600.148 0 0 1-.036.03c-.001.003-.004.004-.007.007l-.007.006a.03.03 0 0 1-.007.005c-.008.009-.018.017-.027.025l-.03.025-.029.025-.029.025a.529.529 0 0 1-.029.026l-.03.027-.031.026-.03.027-.003.004c-.002.001-.003.003-.005.003l-.004.004-.004.004c-.139.12-.273.243-.408.365a33.202 33.202 0 0 0-1.157 1.118c-1.473 1.508-2.683 3.091-3.613 4.701a18.85 18.85 0 0 0-1.057 2.129l-.003.001c-.01.023-.017.046-.026.068-.146.353-.28.705-.399 1.058l-.005.012-.007.027a15.057 15.057 0 0 0-.457 1.672l.001-.005-.008.038c-.029.14-.052.278-.078.415v-.003c-.008.055-.02.109-.029.164l-.007.042c-.02.134-.038.268-.056.402v-.001l-.027.214v-.002a9.336 9.336 0 0 0-.037.401c-.003.036-.009.072-.011.107h.002a11.285 11.285 0 0 0 .28 3.532 10.214 10.214 0 0 0 1.859 3.82l-.124-.162c.053.072.111.142.167.212l-.043-.05.103.132.048.059.032.041.054.064c.034.039.064.078.097.117-.02-.024-.038-.049-.058-.072.052.06.104.123.158.184l-.02-.022.044.05c.02.02.036.043.055.065l.035.036.047.054c.088.095.177.19.268.282l-.015-.018.022.025c.124.125.251.248.383.37l.057.053.058.053.059.051.06.053c0 .002.004.004.005.006l.007.005.007.006a6.468 6.468 0 0 0 .062.056l.03.024.028.024a6.468 6.468 0 0 1 .059.05l.029.023.03.025c0 .002.003.005.006.006l.007.006.007.005.007.006.06.05.062.05c.02.016.04.033.061.048l.063.05s0 .002.002.002l.003.002.004.003.003.003c.146.114.294.225.447.333l.025.016-.011-.006c.112.08.227.16.344.236l.062.04.046.032.085.052.164.105c.005.004.012.006.018.01l-.073-.047c.067.04.134.084.2.124l-.007-.004c.006.002.012.007.017.01l.082.05.053.03.076.046c.123.07.25.141.377.21 1.663.897 3.581 1.518 5.69 1.848 1.65.258 3.4.332 5.206.235l.03-1.13c-.962.055-1.909.06-2.832.01Z"/><path fill="#CA262B" d="M108.121 35.585c-.941.685-1.896 1.311-2.688 1.723-.955.5-1.885 1.022-2.859 1.462a32.916 32.916 0 0 1-7.057 2.282 29.104 29.104 0 0 1-4.007.523l-.03 1.13h-.002c.028 0 .056-.004.082-.005.258-.015.517-.033.776-.056.11-.008.22-.019.328-.029a31.666 31.666 0 0 0 .823-.087c.096-.013.193-.028.288-.04.233-.032.465-.063.7-.099a3.78 3.78 0 0 0 .033-.004c.12-.02.239-.043.357-.063.222-.037.444-.072.666-.113.203-.04.405-.086.608-.13.143-.03.287-.056.431-.09.014-.002.028-.006.042-.01.228-.05.455-.108.683-.164.103-.027.207-.049.31-.077l.12-.032c.244-.064.487-.132.73-.202l.353-.103c.266-.08.532-.161.798-.248.026-.007.05-.016.076-.024a35.028 35.028 0 0 0 5.591-2.38 32.585 32.585 0 0 0 6.498-4.526l-1.195-.595a32.146 32.146 0 0 1-2.455 1.957Z"/><path fill="#CA262B" d="M118.769 18.507a11.364 11.364 0 0 0-.09-.423c-.007-.028-.011-.056-.018-.082-.011-.047-.026-.093-.039-.139-.024-.093-.043-.189-.071-.28-.012-.045-.029-.088-.043-.133l-.009-.037c-.013-.038-.027-.076-.039-.115-.049-.15-.097-.3-.153-.447l-.004-.01c-.008-.026-.021-.05-.031-.076-.191-.503-.423-.99-.691-1.454l-.04-.075-.006-.008c-.07-.121-.147-.24-.223-.358-.028-.043-.054-.09-.083-.134l-.002.002a10.906 10.906 0 0 0-1.389-1.692c-1.225-1.218-2.783-2.212-4.63-2.938l-.652.65a14.1 14.1 0 0 1 1.638.81 12.35 12.35 0 0 1 1.46.99c.459.36.881.75 1.264 1.164a10.047 10.047 0 0 1 1.629 2.35 9.691 9.691 0 0 1 .79 2.256c.089.402.153.813.193 1.235.06.625.064 1.267.012 1.927-.052.67-.163 1.354-.336 2.05a14.953 14.953 0 0 1-.713 2.155 17.98 17.98 0 0 1-1.12 2.226 20.767 20.767 0 0 1-1.538 2.25 23.449 23.449 0 0 1-1.225 1.452 26.65 26.65 0 0 1-2.033 2.006l1.193.594.002.001.003-.004c.148-.133.294-.267.438-.402.031-.028.06-.057.089-.085l.064-.058.098-.096.028-.028-.012.012.233-.227-.086.086.018-.017c.064-.062.127-.126.19-.19.035-.035.071-.068.105-.103l.056-.058.069-.068c.138-.14.274-.283.408-.426-.004.006-.009.01-.014.015l.035-.036c.18-.193.357-.387.532-.584l.004-.005.005-.006a.01.01 0 0 0 .004-.006l.006-.004.037-.043.038-.044c.014-.014.026-.03.04-.045l.04-.047.034-.039.033-.039.033-.038.034-.04.009-.01a.027.027 0 0 1 .01-.011c.003-.005.006-.007.008-.012l.01-.01c.011-.015.024-.027.035-.04a.354.354 0 0 1 .035-.042l.033-.04.035-.042.034-.04.034-.042.033-.04.035-.042a.068.068 0 0 1 .008-.01l.008-.011.009-.01a.028.028 0 0 1 .009-.01c.022-.03.046-.058.07-.087l.07-.087.071-.09.072-.09c.118-.15.231-.302.343-.452-.021.028-.039.056-.06.082.032-.041.062-.083.092-.125.028-.035.056-.07.082-.107.03-.04.058-.082.089-.123.036-.052.075-.102.111-.153.044-.06.086-.123.129-.186l.098-.137.006-.01.074-.108-.023.032.074-.111c-.018.026-.033.053-.051.079l.045-.067c.06-.089.118-.179.177-.269.031-.049.065-.097.095-.146a.45.45 0 0 0 .027-.043.728.728 0 0 0 .032-.048c.018-.03.036-.057.052-.086l-.026.041a25.808 25.808 0 0 0 .228-.367 2.08 2.08 0 0 1 .056-.093l-.002-.002c.985-1.651 1.657-3.295 2.025-4.884.348-1.508.42-2.956.249-4.317h.003l-.01-.063a9.277 9.277 0 0 0-.108-.663Z"/><path fill="#C0DDD8" d="M92.354 10.862c.433-.163.87-.317 1.307-.463.439-.144.879-.28 1.32-.408a32.49 32.49 0 0 1 2.674-.652l.032.504a31.3 31.3 0 0 0-2.696.637 34.948 34.948 0 0 0-2.651.87l.014-.488ZM82.288 16.74l.03-.025.029-.025a3.493 3.493 0 0 0 .06-.05l.006-.006.006-.005a.035.035 0 0 0 .007-.006l.007-.005.06-.051c.022-.017.042-.035.062-.052.02-.017.041-.033.06-.051l.063-.05a33.987 33.987 0 0 1 .87-.692 31.614 31.614 0 0 1 .883-.653l.484.201c-.19.135-.38.27-.567.41A32.707 32.707 0 0 0 82.69 17a31.785 31.785 0 0 0-.988.885 29.283 29.283 0 0 0-.923.909l-.453-.226c.124-.127.249-.252.375-.376.128-.125.255-.25.386-.374a26.159 26.159 0 0 1 .803-.734l.004-.004.005-.004.004-.003.004-.004.03-.026.031-.027.03-.026.03-.027.029-.025.029-.025.028-.024.029-.026c.003 0 .004-.004.007-.005a.024.024 0 0 1 .007-.006l.007-.007c.002 0 .004-.004.007-.005l.029-.025.029-.025.03-.025.028-.025Zm24.028-7.827a21.868 21.868 0 0 1 1.026.146 19.125 19.125 0 0 1 1.017.194c.027.005.053.012.078.018l.075.017a4.108 4.108 0 0 1 .146.033l.009.001.009.003.009.001.009.003.034.009.035.008c.011.001.022.004.035.007a1.716 1.716 0 0 0 .069.018l.033.008a.911.911 0 0 1 .035.009l.035.008c.003 0 .005.001.008.003l.01.001.01.003.008.003c.011.001.022.005.033.007l.032.008.033.008.032.01.041.01c.012.002.025.007.037.01a.381.381 0 0 0 .038.009.29.29 0 0 0 .036.01l.004.001.005.002h.005l.004.002a16.977 16.977 0 0 1 .97.289 15.662 15.662 0 0 1 .93.334l-.65.651a16.864 16.864 0 0 0-2.424-.8 22.881 22.881 0 0 0-1.215-.264 20.923 20.923 0 0 0-1.227-.186l.626-.594ZM75.654 25.398l.767-.197c-.158.379-.3.76-.427 1.14a14.3 14.3 0 0 0-.557 2.307 12.48 12.48 0 0 0-.116 1.16l-.813.198a13.829 13.829 0 0 1 .379-2.319c.095-.384.208-.768.337-1.15.127-.38.272-.76.43-1.139Zm40.313-10.338 1.261-.323a10.293 10.293 0 0 1 1.659 4.495l-1.358.33c-.038-.42-.104-.832-.191-1.234a9.774 9.774 0 0 0-1.371-3.267ZM77.305 36.456a11.099 11.099 0 0 0 2.265 2.202 12.36 12.36 0 0 0 1.202.78c.211.121.428.238.648.349l-.837.834a12.668 12.668 0 0 1-.992-.586 13.789 13.789 0 0 1-.913-.65l-.003-.003-.004-.002-.001-.003-.005-.002-.062-.049-.061-.05a1.113 1.113 0 0 1-.061-.049 1.016 1.016 0 0 1-.061-.05.024.024 0 0 0-.007-.005l-.007-.006-.007-.006c-.003-.002-.006-.003-.007-.006l-.03-.024-.028-.025-.03-.023-.029-.025-.029-.025-.029-.025a45.08 45.08 0 0 1-.057-.049l-.005-.005a.026.026 0 0 0-.007-.006l-.007-.005-.006-.007-.06-.052-.058-.052-.058-.053-.057-.053a12.164 12.164 0 0 1-.74-.75 10.788 10.788 0 0 1-.637-.78l.78-.739Zm38.069-8.536 1.237.515a21.343 21.343 0 0 1-1.648 2.397l-.074.092-.071.089-.069.087-.071.086-.008.011a.068.068 0 0 0-.008.01.077.077 0 0 0-.009.011l-.008.01a.645.645 0 0 0-.035.041l-.033.04a.458.458 0 0 1-.035.042 1.02 1.02 0 0 1-.033.04c-.011.015-.024.028-.035.042a15.123 15.123 0 0 0-.068.082l-.035.04c-.002.005-.006.007-.009.011l-.01.012c-.003.002-.005.006-.008.01l-.01.01-.033.04-.034.04-.033.038c-.011.013-.022.025-.033.04l-.042.046a.724.724 0 0 1-.039.045l-.037.044a.477.477 0 0 0-.039.043l-.004.004c-.002.003-.003.005-.006.006l-.004.006-.005.005a28.655 28.655 0 0 1-1.659 1.72 53.01 53.01 0 0 1-.595.55l-1.195-.596a27.644 27.644 0 0 0 1.386-1.32 25.055 25.055 0 0 0 2.434-2.89 20.808 20.808 0 0 0 .978-1.498ZM91.51 41.575a28.885 28.885 0 0 0 4.007-.524 32.893 32.893 0 0 0 4.09-1.106l.075 1.184a32.964 32.964 0 0 1-4.147 1.077c-.685.13-1.37.239-2.048.322-.675.083-1.345.143-2.007.178l.03-1.132Z"/><mask id="c" width="45" height="35" x="74" y="8" maskUnits="userSpaceOnUse" style="mask-type:luminance"><path fill="#fff" d="M74.477 8.747h44.496v33.999H74.477V8.747Z"/></mask><g mask="url(#c)"><mask id="d" width="45" height="35" x="74" y="8" maskUnits="userSpaceOnUse" style="mask-type:luminance"><path fill="#fff" d="m118.678 18.083-.016-.082c-.013-.047-.027-.091-.039-.139-.025-.093-.045-.187-.071-.279l-.043-.133-.01-.036c-.012-.039-.028-.076-.04-.115-.047-.15-.097-.3-.151-.447l-.004-.012-.031-.075a10.242 10.242 0 0 0-.691-1.454c-.014-.024-.027-.05-.042-.074-.001-.005-.003-.007-.005-.01-.071-.12-.147-.239-.222-.357-.03-.044-.055-.09-.084-.133h-.002c-.4-.6-.862-1.169-1.388-1.692-1.227-1.217-2.784-2.212-4.63-2.938l-.35.349.346-.35a22.91 22.91 0 0 0-.93-.334 23.788 23.788 0 0 0-.479-.15 24.824 24.824 0 0 0-.49-.14h-.009c-.002-.002-.003-.002-.005-.002l-.005-.001c-.011-.005-.024-.007-.036-.01l-.036-.01a.381.381 0 0 0-.038-.01l-.04-.01-.033-.01a1.448 1.448 0 0 0-.066-.016l-.032-.008a.028.028 0 0 1-.009-.003l-.009-.001-.009-.003a.027.027 0 0 1-.01-.003l-.033-.008-.035-.008-.035-.009a1.716 1.716 0 0 0-.034-.008l-.035-.008-.035-.009-.034-.008a1.716 1.716 0 0 1-.034-.008l-.009-.002-.009-.003h-.01l-.008-.004-.072-.016-.074-.017-.075-.017-.077-.016c-.17-.038-.339-.071-.508-.104l-.21-.038-.17-.03-.131-.023a15.03 15.03 0 0 0-.512-.079l-.06-.008-.13-.017c-.107-.014-.215-.029-.322-.041l-.004.002a25.544 25.544 0 0 0-4.649-.112c-1.327.086-2.67.278-4.008.545v-.01c-.216.044-.428.095-.642.142-.177.04-.354.077-.53.118-.057.014-.114.025-.17.04a34.04 34.04 0 0 0-1.147.303c-.06.018-.123.03-.184.049-.064.018-.128.041-.192.06a36.59 36.59 0 0 0-1.13.349l-.157.056c-.172.058-.342.12-.514.181-.211.075-.425.146-.636.225v.01a35.311 35.311 0 0 0-3.775 1.665 33.984 33.984 0 0 0-4.138 2.536l-.01-.004-.312.226-.05.037-.08.059c-.148.108-.294.219-.44.33a33.826 33.826 0 0 0-.863.686l.005-.003-.013.01-.062.05a.951.951 0 0 1-.061.05c-.02.019-.04.035-.061.052a2.11 2.11 0 0 1-.075.063l-.006.005-.007.007-.03.024-.03.025-.029.025-.029.025-.029.025-.03.025-.028.024-.03.026a.026.026 0 0 1-.006.005l-.007.007c-.003.001-.005.004-.007.006l-.007.005-.03.025-.027.025-.03.025a7.565 7.565 0 0 1-.088.078l-.03.026c-.01.01-.021.018-.031.026l-.004.005a.08.08 0 0 1-.004.004l-.005.003-.004.004a26.323 26.323 0 0 0-.803.734c-.13.123-.258.248-.386.373l-.375.376c-1.472 1.508-2.684 3.091-3.614 4.7a18.594 18.594 0 0 0-1.056 2.13l-.003.001c-.01.022-.016.046-.026.068-.146.353-.28.705-.4 1.058l-.004.012-.008.027c-.186.555-.337 1.11-.454 1.664l-.001.01.001-.008-.01.04c-.029.138-.052.277-.076.414v-.003l-.03.164a10.981 10.981 0 0 0-.128 1.056l-.01.106h.003a11.278 11.278 0 0 0 .279 3.532 10.223 10.223 0 0 0 1.833 3.784c.024.028.046.059.068.088-.014-.018-.03-.035-.041-.053.033.044.066.089.102.133.015.02.032.04.049.06l.03.04.056.064c.032.039.064.08.097.118-.02-.025-.039-.05-.06-.073.053.06.106.123.158.184l-.019-.022.044.05.056.065.033.036.049.054c.087.095.176.189.268.282l-.017-.018.024.025c.123.125.25.248.381.37l.059.053.056.053.06.051.058.053.007.006.007.005.006.006a.023.023 0 0 0 .007.005l.028.025.029.025.029.025.028.025.029.024.029.025.029.023.03.025.006.006a.028.028 0 0 1 .007.005l.007.006.007.007c.02.017.042.033.061.05l.061.048.063.05c.02.016.041.032.06.049.002 0 .003.001.005.003l.002.001.003.003c.002.001.003.001.003.003.146.114.296.224.447.333.008.005.018.01.026.018l-.012-.008c.114.08.229.16.345.237l.061.039c.016.01.031.02.046.032l.086.052.163.104c.007.005.012.007.02.011a1.02 1.02 0 0 1-.073-.047c.067.042.132.084.2.124a.324.324 0 0 0-.009-.004c.006.002.013.007.019.01l.081.05.053.03.075.046c.125.072.25.141.377.21 1.663.897 3.581 1.517 5.69 1.848 1.65.26 3.4.333 5.208.234v.002l.082-.006a30.07 30.07 0 0 0 1.825-.162l.1-.01c.095-.012.192-.028.288-.04.233-.032.465-.063.7-.099a.296.296 0 0 0 .033-.005c.12-.018.239-.042.357-.061.222-.038.444-.072.666-.115.202-.038.405-.085.608-.128.144-.03.287-.057.431-.09l.042-.01c.228-.051.455-.11.683-.165.104-.027.208-.049.312-.077l.118-.032c.244-.065.487-.133.731-.202.117-.033.235-.068.353-.103.266-.079.531-.162.798-.248l.075-.024a35.13 35.13 0 0 0 5.593-2.38 32.633 32.633 0 0 0 6.939-4.93c.029-.03.058-.058.089-.087.02-.02.043-.039.063-.058a4.72 4.72 0 0 1 .127-.124c-.004.006-.01.009-.014.013.079-.075.155-.152.233-.228-.029.03-.056.059-.086.088l.019-.018.19-.19.105-.102.056-.058.068-.07a20.9 20.9 0 0 0 .409-.424l-.014.015a26.224 26.224 0 0 0 .571-.626l.005-.005c.001-.002.002-.005.005-.006.002-.001.003-.004.004-.006.013-.013.025-.029.038-.043l.039-.043.038-.045c.014-.016.028-.03.042-.048l.033-.038.034-.04.033-.038.033-.039.009-.011a.028.028 0 0 0 .009-.011.08.08 0 0 0 .01-.011 1.188 1.188 0 0 1 .113-.133l.034-.04a.478.478 0 0 1 .034-.042l.034-.04.034-.042.033-.04c.003-.005.005-.009.01-.012a.032.032 0 0 1 .008-.01l.008-.01.009-.012c.023-.027.047-.056.069-.086.023-.029.047-.056.071-.087.023-.03.047-.058.07-.089l.073-.091c.118-.15.23-.3.344-.451-.021.027-.039.055-.06.083l.092-.125c.026-.036.055-.07.08-.107l.089-.125.112-.151c.045-.063.085-.125.13-.186l.097-.139.007-.008.072-.108a.63.63 0 0 0-.022.031l.075-.112c-.019.026-.035.053-.053.08.015-.022.032-.044.046-.066.061-.09.118-.18.176-.27.032-.05.065-.097.097-.145a.703.703 0 0 1 .058-.092l.053-.087a11.231 11.231 0 0 0 .205-.336c-.001.003-.002.007-.005.01l.057-.093h-.002c.984-1.653 1.657-3.296 2.024-4.884.348-1.508.42-2.957.251-4.317l.001-.002c-.001-.02-.007-.04-.009-.062-.02-.15-.043-.299-.068-.447-.013-.072-.025-.145-.041-.217a7.693 7.693 0 0 0-.09-.423Z"/></mask><g mask="url(#d)"><mask id="g" width="90952" height="90952" x="-45476" y="-45419" maskUnits="userSpaceOnUse" style="mask-type:luminance"><mask id="e" width="90952" height="90952" x="-45476" y="-45419" maskUnits="userSpaceOnUse" style="mask-type:luminance"><path fill="#fff" d="M-45475.8-45418.3h90950.9v90950.8h-90950.9v-90950.8Z"/></mask><g mask="url(#e)"><path fill="url(#f)" d="M-45475.8-45418.3h90950.9v90950.8h-90950.9v-90950.8Z"/></g></mask><g mask="url(#g)"><path fill="url(#h)" d="m118.681 18.087-.017-.082c-.012-.047-.026-.092-.039-.139-.025-.093-.044-.187-.071-.279-.013-.046-.029-.089-.043-.133l-.009-.036c-.013-.04-.028-.077-.041-.115-.047-.15-.097-.3-.151-.447l-.004-.013-.03-.075a10.246 10.246 0 0 0-.692-1.453c-.013-.025-.026-.051-.041-.075-.002-.004-.003-.007-.006-.01-.071-.12-.147-.238-.222-.356-.029-.045-.054-.09-.083-.133h-.003c-.4-.601-.862-1.169-1.388-1.692-1.227-1.217-2.784-2.212-4.629-2.938l-.35.348.345-.35a22.85 22.85 0 0 0-.929-.334 25.91 25.91 0 0 0-.479-.15c-.163-.047-.325-.094-.49-.139l-.004-.001h-.006l-.004-.001c-.001-.002-.004-.002-.006-.002a.249.249 0 0 0-.036-.01.249.249 0 0 0-.036-.01l-.037-.009-.04-.011-.034-.008a1.393 1.393 0 0 0-.032-.009l-.033-.008-.032-.008a.027.027 0 0 1-.01-.003l-.008-.002c-.004 0-.007 0-.01-.002a1.716 1.716 0 0 1-.043-.011l-.034-.009-.035-.008a.93.93 0 0 0-.07-.017l-.034-.008a.93.93 0 0 0-.035-.008l-.033-.009-.01-.001-.008-.003-.01-.001-.008-.003-.072-.017-.074-.016-.075-.017-.078-.017c-.169-.037-.338-.07-.508-.104l-.209-.037c-.057-.01-.113-.021-.171-.03l-.13-.023c-.17-.03-.34-.055-.512-.079l-.06-.008-.131-.017c-.106-.014-.215-.03-.322-.042l-.004.003a25.544 25.544 0 0 0-4.649-.112 30.584 30.584 0 0 0-4.008.545v-.01c-.215.043-.427.095-.641.142-.178.04-.354.076-.53.118l-.171.039c-.383.093-.765.197-1.146.304-.061.018-.124.03-.185.048-.064.018-.128.042-.191.06a36.51 36.51 0 0 0-1.13.35l-.157.055c-.172.059-.343.121-.515.182-.21.075-.425.146-.635.225v.01a35.312 35.312 0 0 0-3.775 1.665 33.992 33.992 0 0 0-4.139 2.535l-.01-.004-.312.227-.05.037-.08.058c-.147.109-.293.22-.439.33a33.184 33.184 0 0 0-.863.686l.004-.003-.012.01-.063.051-.06.05-.062.052-.06.051-.008.006c-.001.003-.004.004-.007.005-.001.003-.004.004-.005.006-.003.003-.006.004-.007.007l-.03.023-.03.025-.03.025-.028.025-.03.025-.029.025-.029.025-.029.025a.022.022 0 0 1-.007.006l-.007.007-.007.005a.023.023 0 0 1-.007.006l-.029.025-.028.025-.029.025-.029.025a.286.286 0 0 1-.03.026.465.465 0 0 1-.03.026l-.03.027c-.01.01-.02.018-.03.026l-.005.004-.004.005c-.001 0-.003 0-.004.002a31.782 31.782 0 0 0-1.194 1.112c-.126.125-.25.251-.374.376-1.473 1.507-2.684 3.09-3.614 4.7a18.595 18.595 0 0 0-1.056 2.13h-.003c-.01.023-.017.047-.026.069-.146.352-.28.705-.4 1.057l-.004.013-.009.026c-.186.555-.337 1.11-.453 1.664l-.002.01c0-.003 0-.006.002-.007l-.01.04v-.001c-.03.139-.053.277-.076.415v-.003l-.031.164a10.259 10.259 0 0 0-.128 1.056c-.002.035-.007.07-.01.105h.003a11.282 11.282 0 0 0 .28 3.532 10.224 10.224 0 0 0 1.833 3.785l.068.087c-.014-.018-.03-.034-.042-.052.033.044.067.089.103.133l.048.06c.01.012.021.026.03.04.019.02.038.041.056.064.032.039.064.079.098.118l-.06-.074.158.185-.02-.023.045.05c.018.023.036.045.055.066l.034.036.048.054c.088.094.177.189.268.282-.005-.006-.01-.013-.016-.018l.023.025c.124.124.25.248.382.37l.058.053.057.053.06.05a1.987 1.987 0 0 0 .065.06c.001.002.004.003.007.005.001.003.004.004.005.005a.459.459 0 0 1 .035.03c.01.01.02.017.03.026l.028.025.028.025.03.023.028.025.03.024.029.025.007.005.007.006.007.006c.002.002.005.004.006.007.021.016.042.033.061.05a.935.935 0 0 1 .062.048l.062.05c.02.015.042.032.061.049l.004.002.003.002c.001.001.001.003.003.003l.003.002c.145.114.295.225.446.333l.027.019-.013-.009c.114.08.23.16.346.237l.061.04.046.031.086.053.162.104.02.011-.073-.047c.067.042.132.083.2.123l-.008-.004.018.01c.028.017.054.035.082.051l.053.03.075.045c.124.072.25.142.377.21 1.663.898 3.58 1.518 5.69 1.849 1.65.259 3.4.333 5.207.234v.001l.082-.005c.257-.015.515-.034.775-.056l.327-.029a32.17 32.17 0 0 0 .823-.087c.096-.013.193-.028.289-.04.233-.032.465-.063.7-.099l.032-.006c.12-.018.24-.041.357-.06.222-.038.444-.073.666-.116.203-.037.406-.084.608-.127.144-.031.287-.057.432-.09.014-.004.028-.008.041-.01.228-.052.456-.11.683-.166.104-.026.208-.048.313-.076l.118-.032a48.586 48.586 0 0 0 1.083-.305c.267-.08.532-.163.798-.249l.075-.023a35.09 35.09 0 0 0 5.593-2.38 32.607 32.607 0 0 0 6.939-4.931c.029-.03.059-.057.089-.086l.064-.058a8.006 8.006 0 0 1 .126-.124c-.004.005-.009.008-.014.012.079-.075.156-.15.234-.227-.03.029-.056.058-.087.087a.234.234 0 0 0 .02-.018c.064-.062.126-.126.19-.19l.104-.101.057-.058.068-.07c.139-.14.275-.282.408-.425l-.014.016c.011-.013.024-.025.035-.036.18-.193.358-.388.531-.585.002-.001.003-.004.006-.005l.004-.006c.002-.001.003-.004.006-.005.001-.002.002-.005.004-.006l.037-.043.039-.043.039-.046.042-.047.033-.039.033-.039.034-.038.033-.04.008-.01.01-.011a.085.085 0 0 0 .01-.012l.008-.01.035-.041.034-.04.035-.042.035-.04.033-.042a.656.656 0 0 1 .035-.04l.033-.042.033-.04.01-.011.008-.01.009-.01.008-.012c.024-.028.047-.057.069-.086.024-.03.048-.057.071-.087a4.928 4.928 0 0 0 .143-.18c.118-.15.231-.3.344-.452-.02.028-.038.056-.059.083l.091-.124c.027-.037.056-.071.081-.107l.089-.125.112-.152.129-.186.097-.138.007-.009a3.498 3.498 0 0 0 .05-.076l.075-.112-.053.08a1.33 1.33 0 0 0 .046-.067c.061-.09.118-.18.176-.27.032-.049.066-.096.098-.144a.703.703 0 0 1 .058-.092l.053-.087-.028.041a13.147 13.147 0 0 0 .284-.46h-.001c.984-1.654 1.657-3.297 2.023-4.884.349-1.509.421-2.958.252-4.318l.001-.001c-.001-.021-.007-.04-.01-.063a11.113 11.113 0 0 0-.198-1.086Z"/></g></g></g><mask id="i" width="45" height="29" x="76" y="19" maskUnits="userSpaceOnUse" style="mask-type:luminance"><path fill="#fff" d="M76.125 19.264h44.466v27.985H76.125V19.264Z"/></mask><g mask="url(#i)"><mask id="j" width="45" height="29" x="76" y="19" maskUnits="userSpaceOnUse" style="mask-type:luminance"><path fill="#fff" d="M118.893 19.264c.099.808.11 1.647.029 2.512-.081.883-.259 1.79-.538 2.715a16.985 16.985 0 0 1-1.171 2.868 20.968 20.968 0 0 1-.934 1.615c-.072.116-.15.23-.227.346-.065.099-.129.197-.197.297a22.779 22.779 0 0 1-.966 1.306l-.07.089a3.792 3.792 0 0 1-.063.078l-.041.052-.036.043-.009.011-.008.011-.008.01c-.005.003-.007.007-.01.011l-.033.04a1.243 1.243 0 0 0-.034.042l-.034.04a1.149 1.149 0 0 0-.034.042l-.034.04a1.29 1.29 0 0 0-.035.042.602.602 0 0 1-.035.04.645.645 0 0 1-.035.042l-.008.01a.085.085 0 0 1-.01.01.03.03 0 0 1-.009.012l-.009.01-.033.04-.033.039-.034.038-.033.04-.042.047-.038.045-.039.043c-.013.014-.025.03-.038.043-.001.002-.002.005-.004.006-.003.001-.004.004-.005.006-.002 0-.003.004-.005.005a26.224 26.224 0 0 1-1.081 1.152l-.011.012c-.184.186-.373.37-.563.551l-.021.02c-.192.182-.386.36-.583.538l.001.002-.09.081c-.839.751-1.753 1.437-2.663 2.127a22.9 22.9 0 0 1-2.926 1.866c-1.025.558-2.055 1.1-3.118 1.57a35.576 35.576 0 0 1-4.281 1.57 35.71 35.71 0 0 1-2.1.548c-.342.076-.683.148-1.024.213 0 0-.002 0-.002-.002a31.55 31.55 0 0 1-4.088.509l-.192.012a25.72 25.72 0 0 1-3.96-.11 20.79 20.79 0 0 1-3.576-.697 16.383 16.383 0 0 1-3.089-1.245l-.078-.043-.002-.003a15.212 15.212 0 0 1-.503-.283c-.001-.001-.004-.001-.005-.003a15.822 15.822 0 0 1-.485-.3 13.214 13.214 0 0 1-.913-.65c0-.002-.001-.002-.003-.003l-.003-.003-.002-.001-.004-.003a1.032 1.032 0 0 0-.062-.049l-.062-.05a1.113 1.113 0 0 0-.061-.048 2.186 2.186 0 0 0-.061-.05c-.001-.003-.004-.004-.007-.007l-.007-.006a.03.03 0 0 0-.007-.005l-.007-.006-.029-.025-.03-.023-.028-.025-.03-.024a.494.494 0 0 0-.056-.05 6.468 6.468 0 0 0-.064-.055l-.006-.006-.007-.005-.007-.006-.058-.053-.06-.051-.056-.053-.059-.053a12.109 12.109 0 0 1-.381-.37c-.09-.09-.174-.182-.258-.274a13.778 13.778 0 0 1-.376-.429l-.08-.095a12.96 12.96 0 0 1-.28-.36c-.04-.054-.083-.108-.122-.162a9.739 9.739 0 0 1-.28-.41l2.606 4.028c.093.144.189.287.29.429.04.057.083.11.125.168.062.084.123.17.189.252l.1.124c.01.012.017.024.027.035l.056.066c.051.063.101.128.155.19l.082.09c.017.02.03.04.047.057.034.038.068.075.103.111.044.05.086.1.132.149l-.009-.015.002.003.01.013a.66.66 0 0 0 .029.032l.03.034.03.03.031.032.003.004.004.003.003.003.003.004.04.041.042.042c.013.014.027.03.041.043l.042.042-.007-.011.03.029.006.011.046.046.047.046.047.045.049.046.001.003.06.056c.02.017.039.035.058.054l.06.055a2.192 2.192 0 0 1 .08.072l.007.007.028.027.03.025.028.026.03.026.03.025.03.027.028.025c.01.008.021.016.03.026a.03.03 0 0 0 .008.005c.002.002.004.005.007.006l.007.007.007.006.062.052.061.053.063.051.063.052.003.002c.002 0 .003.002.003.003l.004.002s.001.002.003.002c.147.121.298.238.452.353l.157.111.003.006a12.937 12.937 0 0 0 .676.46c.041.027.083.052.123.077l.003.001.001.001.225.14c.118.071.239.14.36.21.956.539 1.99.987 3.089 1.342 1.123.364 2.31.629 3.547.795a24.34 24.34 0 0 0 3.901.202 27.567 27.567 0 0 0 3.154-.267c.35-.048.7-.102 1.045-.162 0-.002 0-.002-.002-.003a29.751 29.751 0 0 0 2.026-.432 31.28 31.28 0 0 0 5.189-1.777 31.859 31.859 0 0 0 3.022-1.53 30.394 30.394 0 0 0 2.827-1.836 28.426 28.426 0 0 0 3.222-2.74l.007-.008.135-.13c.129-.13.257-.262.384-.394l.022-.025.003-.003a20.387 20.387 0 0 0 .35-.373l-.001-.003c.059-.065.122-.13.181-.196.075-.084.148-.17.222-.255l.002.002a.121.121 0 0 1 .012-.013.061.061 0 0 1 .011-.014l.013-.014.012-.014-.001-.003c.079-.091.161-.182.239-.274l.004-.006.004-.006c.003-.001.004-.002.006-.005a.338.338 0 0 1 .004-.006l.036-.043.037-.043a.511.511 0 0 1 .038-.046l.039-.047c.011-.012.02-.026.032-.039l.031-.038c.012-.013.021-.027.032-.04l.032-.038a.077.077 0 0 1 .009-.011c.002-.005.005-.007.009-.011l.009-.011c.002-.005.005-.008.008-.012l.033-.04.034-.042.033-.04.032-.041.033-.04a1.16 1.16 0 0 1 .032-.042l.032-.042.032-.042c.003-.002.005-.007.008-.01l.009-.01.008-.01.008-.011.01-.013c.01-.01.018-.022.026-.033l.031-.04.007-.008.001-.002.024-.032a.692.692 0 0 1 .036-.046l.001-.002c0-.002.002-.002.002-.003a2.28 2.28 0 0 0 .063-.084l.063-.083c.003-.002.004-.007.007-.01.129-.173.254-.346.376-.52.008-.012.017-.022.025-.035l.035-.048c.14-.201.276-.403.406-.604l.01-.015c.065-.1.125-.201.187-.301.061-.096.124-.192.181-.289l.034-.058c.089-.147.173-.296.257-.443l.058-.101v-.003c.202-.362.395-.724.568-1.087a17.05 17.05 0 0 0 1.092-2.914 14.44 14.44 0 0 0 .478-2.779 12.78 12.78 0 0 0-.078-2.59l-.784-2.268-.804-2.33Z"/></mask><g mask="url(#j)"><mask id="m" width="90952" height="90952" x="-45476" y="-45419" maskUnits="userSpaceOnUse" style="mask-type:luminance"><mask id="k" width="90952" height="90952" x="-45476" y="-45419" maskUnits="userSpaceOnUse" style="mask-type:luminance"><path fill="#fff" d="M-45475.8-45418.3h90950.9v90950.8h-90950.9v-90950.8Z"/></mask><g mask="url(#k)"><path fill="url(#l)" d="M-45475.8-45418.3h90950.9v90950.8h-90950.9v-90950.8Z"/></g></mask><g mask="url(#m)"><path fill="url(#n)" d="M118.893 19.265c.099.808.11 1.647.03 2.512a13.82 13.82 0 0 1-.539 2.714 16.982 16.982 0 0 1-1.171 2.87 20.894 20.894 0 0 1-.934 1.615c-.072.115-.15.23-.226.345-.066.099-.129.197-.197.297a24.756 24.756 0 0 1-.894 1.214l-.072.092-.071.089a3.53 3.53 0 0 1-.063.077l-.041.053-.036.043-.009.011c-.002.005-.005.007-.008.012a.02.02 0 0 0-.008.01c-.004.002-.007.006-.01.01l-.033.04-.034.042-.034.04-.034.042-.034.04-.035.042a.656.656 0 0 1-.035.04 1.149 1.149 0 0 1-.034.042l-.009.01-.009.01a.04.04 0 0 1-.01.012l-.009.01-.033.04-.033.039-.033.038-.034.04-.041.046a.792.792 0 0 0-.039.046l-.039.043c-.013.014-.025.03-.038.043-.001.002-.002.005-.004.006-.003.001-.004.004-.005.005l-.004.006a23.808 23.808 0 0 1-1.082 1.152l-.011.012c-.184.186-.373.37-.563.551l-.021.02c-.191.182-.386.36-.583.538l.002.002c-.031.026-.06.054-.091.081-.839.751-1.752 1.437-2.663 2.127a22.961 22.961 0 0 1-2.925 1.866c-1.026.558-2.056 1.1-3.119 1.57a35.585 35.585 0 0 1-4.281 1.57 35.787 35.787 0 0 1-2.1.548c-.341.076-.683.148-1.024.213l-.002-.002a31.554 31.554 0 0 1-4.088.509c-.064.003-.13.008-.192.013a25.72 25.72 0 0 1-3.96-.11 20.788 20.788 0 0 1-3.576-.698 16.384 16.384 0 0 1-3.089-1.245l-.078-.043-.002-.003a13.59 13.59 0 0 1-.503-.283c-.001-.001-.004-.001-.005-.003a15.824 15.824 0 0 1-.485-.3 13.216 13.216 0 0 1-.913-.65c0-.002-.001-.002-.003-.003l-.002-.003-.003-.001-.004-.003a1.042 1.042 0 0 0-.061-.049l-.063-.05a1.033 1.033 0 0 0-.06-.048 2.335 2.335 0 0 0-.062-.05c-.001-.003-.004-.004-.007-.007l-.007-.006a.032.032 0 0 0-.007-.005.014.014 0 0 0-.007-.006l-.029-.025a.465.465 0 0 1-.029-.023l-.03-.025-.028-.024-.028-.025-.03-.025a6.468 6.468 0 0 0-.028-.025l-.028-.025-.007-.005-.006-.006-.007-.006a.023.023 0 0 1-.006-.005c-.023-.02-.044-.038-.059-.053l-.06-.051-.056-.053-.059-.053a12.105 12.105 0 0 1-.381-.37c-.09-.09-.174-.182-.258-.274a7.734 7.734 0 0 1-.146-.16 14.137 14.137 0 0 1-.31-.364c-.095-.12-.19-.239-.28-.36-.04-.054-.083-.108-.122-.162a9.711 9.711 0 0 1-.279-.41l2.605 4.028c.093.144.189.287.29.429.04.057.083.11.125.168.062.084.123.17.189.252l.101.124.026.035.056.066c.051.063.101.128.155.19l.082.09c.017.02.03.04.047.057.034.038.068.075.103.111.044.05.086.1.132.149l-.008-.015v.002l.01.014c.01.011.02.023.03.032l.03.034.03.03.031.032.003.004.004.003.003.003.003.004.04.041.042.042c.014.014.027.03.041.043l.042.042-.007-.011.03.029.006.011.046.046c.017.015.032.03.047.046l.047.045.049.046.001.003.06.055.058.055.06.055.061.056.006.005a.032.032 0 0 1 .007.006.023.023 0 0 0 .006.005l.007.007.028.027.03.025.028.026.031.026.03.025.028.027.03.025c.01.008.02.016.03.026a.03.03 0 0 0 .007.005c.003.002.004.005.007.006a.224.224 0 0 1 .007.007l.007.006.062.052.061.053.063.051.064.052a520141487.556 520141487.556 0 0 1 .005.005l.004.002.003.002c.147.121.298.238.452.353.052.037.105.073.157.111l.003.006a13.374 13.374 0 0 0 .676.46c.041.027.083.052.123.077l.003.001.002.001.224.14c.118.071.24.14.36.21.956.539 1.99.987 3.09 1.342a20.29 20.29 0 0 0 3.546.795 24.34 24.34 0 0 0 3.901.202 27.59 27.59 0 0 0 3.154-.267c.35-.048.7-.103 1.045-.162 0-.002 0-.002-.002-.003a30.787 30.787 0 0 0 4.072-1.013 32.253 32.253 0 0 0 6.165-2.726 30.394 30.394 0 0 0 2.827-1.836 28.424 28.424 0 0 0 3.222-2.74l.007-.008.135-.13c.129-.13.257-.263.384-.394l.023-.025.002-.003a20.387 20.387 0 0 0 .35-.373l-.001-.003.182-.196.222-.255.001.002.012-.013a.046.046 0 0 1 .012-.014.115.115 0 0 1 .012-.014.072.072 0 0 1 .013-.014l-.002-.003c.079-.091.161-.182.239-.275.001-.001.003-.002.004-.005l.004-.006c.003-.001.004-.002.006-.005l.004-.006.036-.043.037-.043a.767.767 0 0 1 .038-.046l.039-.047.032-.039.032-.038c.011-.013.02-.027.032-.04l.031-.038a.072.072 0 0 1 .009-.011.081.081 0 0 1 .009-.011l.009-.012.008-.01.033-.04.034-.042.033-.04a.463.463 0 0 1 .032-.042l.033-.04.032-.042.032-.042.032-.042c.003-.002.006-.007.008-.01l.009-.01a.068.068 0 0 1 .008-.01l.008-.011c.005-.004.007-.009.01-.013.01-.01.018-.022.026-.033l.031-.04.007-.009.001-.001.024-.032a.749.749 0 0 1 .036-.046l.001-.002c0-.002.002-.002.002-.003l.064-.084.062-.083c.003-.002.004-.007.007-.01.129-.173.254-.346.376-.52.008-.012.017-.022.025-.035l.035-.048c.14-.201.276-.403.406-.604l.01-.015c.065-.1.125-.201.187-.301a8.13 8.13 0 0 0 .181-.289l.035-.058c.088-.147.172-.296.256-.443.02-.035.041-.068.059-.101v-.003c.201-.362.394-.724.567-1.087a17.05 17.05 0 0 0 1.092-2.914 14.44 14.44 0 0 0 .478-2.779c.062-.888.035-1.754-.078-2.59l-.784-2.268-.804-2.33Z"/></g></g></g></g><defs><radialGradient id="l" cx="0" cy="0" r="1" gradientTransform="matrix(15.90974 -9.34528 5.57276 9.48726 102.24 40.193)" gradientUnits="userSpaceOnUse"><stop stop-color="#fff" stop-opacity=".7"/><stop offset=".401" stop-color="#fff" stop-opacity=".7"/><stop offset=".996" stop-color="#fff" stop-opacity="0"/><stop offset="1" stop-color="#fff" stop-opacity="0"/></radialGradient><radialGradient id="n" cx="0" cy="0" r="1" gradientTransform="matrix(15.90974 -9.34528 5.57276 9.48726 102.238 40.196)" gradientUnits="userSpaceOnUse"><stop stop-color="#FEFFD0"/><stop offset=".401" stop-color="#FEFFD0"/><stop offset=".996" stop-color="#B3C3B9"/><stop offset="1" stop-color="#B3C3B9"/></radialGradient><linearGradient id="f" x1="103.425" x2="83.323" y1="32.694" y2="14.266" gradientUnits="userSpaceOnUse"><stop stop-color="#fff" stop-opacity=".7"/><stop offset=".401" stop-color="#fff" stop-opacity=".7"/><stop offset=".996" stop-color="#fff" stop-opacity="0"/><stop offset="1" stop-color="#fff" stop-opacity="0"/></linearGradient><linearGradient id="h" x1="103.425" x2="83.323" y1="32.701" y2="14.274" gradientUnits="userSpaceOnUse"><stop stop-color="#FEFFD0"/><stop offset=".401" stop-color="#FEFFD0"/><stop offset=".996" stop-color="#B3C3B9"/><stop offset="1" stop-color="#B3C3B9"/></linearGradient></defs></svg>