<svg fill="currentColor" xmlns="http://www.w3.org/2000/svg" width="50" height="50" viewBox="0 0 50 50"><path d="M40.36 34.56c-.36 0-.69.2-.88.5A19.47 19.47 0 0 1 3.31 25a19.49 19.49 0 0 1 36.17-10.06c.19.3.52.5.88.5h2.35c.37 0 .6-.38.44-.7a22.8 22.8 0 1 0 0 20.52.49.49 0 0 0-.44-.7h-2.35Z" fill='#3fbeb7'></path><path d="M15.34 32.7a2.8 2.8 0 0 0 2.39 0c.37-.18.56-.44.56-.8V17.99c0-.33-.18-.6-.52-.78a2.02 2.02 0 0 0-1.03-.29 1.5 1.5 0 0 0-.64.16l-2.95 1.75c-.23.13-.39.3-.5.5-.1.2-.15.42-.15.66 0 .33.1.65.29.94.2.28.48.41.8.41a1.43 1.43 0 0 0 .56-.18l.65-.39v11.15c0 .35.18.61.54.79ZM44.73 19.73a1.35 1.35 0 1 0-2.7 0v3.92h-3.91a1.35 1.35 0 0 0 0 2.7h3.91v3.92a1.35 1.35 0 1 0 2.7 0v-3.92h3.92a1.35 1.35 0 0 0 0-2.7h-3.92v-3.92Z"  fill='#fff'></path><path fill-rule="evenodd" d="M27.83 33.05a8.41 8.41 0 0 1-2.8-.44 4.25 4.25 0 0 1-1.96-1.45 4.34 4.34 0 0 1-.74-2.62v-.27c0-1.12.25-2.02.76-2.69a4.19 4.19 0 0 1 2.01-1.42c-.65-.22-1.19-.6-1.6-1.16-.4-.56-.61-1.29-.61-2.2 0-.91.2-1.65.63-2.22a3.7 3.7 0 0 1 1.76-1.25c.75-.28 1.6-.42 2.55-.42.97 0 1.81.14 2.54.42.75.26 1.33.68 1.75 1.25.43.57.64 1.3.64 2.23 0 .9-.2 1.63-.62 2.19-.4.55-.93.94-1.59 1.16.84.28 1.5.75 2 1.42.5.67.75 1.57.75 2.7v.26c0 1.08-.24 1.95-.74 2.62a4.1 4.1 0 0 1-1.96 1.45c-.82.3-1.74.44-2.77.44Zm0-2.74c.3 0 .57-.04.8-.12.27-.1.5-.24.67-.43.34-.36.52-.91.52-1.64v-.48c0-.72-.18-1.24-.54-1.58-.34-.33-.83-.5-1.45-.5-.63 0-1.12.17-1.48.5-.35.34-.53.86-.53 1.58v.48c0 .76.18 1.31.53 1.66.38.36.87.53 1.48.53Zm0-7.49c.5 0 .9-.11 1.16-.35.08-.07.15-.16.21-.26.14-.24.21-.56.21-.96 0-.56-.14-.96-.42-1.2a1.3 1.3 0 0 0-.57-.33 2.19 2.19 0 0 0-.6-.07c-.5 0-.9.13-1.18.4-.26.24-.4.64-.4 1.2 0 .34.05.63.15.85.06.15.15.27.25.37a1.21 1.21 0 0 0 .22.15l.19.08c.22.08.48.12.78.12Z" fill='#fff' clip-rule="evenodd"></path></svg>