<svg width="21" height="20" viewBox="0 0 21 20" fill="none" xmlns="http://www.w3.org/2000/svg">
<path fill-rule="evenodd" clip-rule="evenodd" d="M7.42679 4.64848L8.59691 5.16215H6.29484C4.96271 5.16215 3.88281 6.22955 3.88281 7.54624V16.6159C3.88281 17.9326 4.96271 19 6.29484 19H10.8796L10.8828 19L10.8861 19H15.4708C16.8029 19 17.8828 17.9326 17.8828 16.6159V7.54624C17.8828 6.22955 16.8029 5.16215 15.4708 5.16215H13.4434L14.6135 4.64848C15.8505 4.10544 16.1514 2.50471 15.1943 1.55872C14.2372 0.612722 12.6178 0.910153 12.0684 2.13282L11.0201 4.4656L9.97192 2.13282C9.42252 0.910153 7.80303 0.612722 6.84595 1.55872C5.88887 2.50471 6.18979 4.10544 7.42679 4.64848ZM9.09781 3.78449L8.62194 2.72546C8.49338 2.43935 8.11441 2.36975 7.89045 2.59112C7.66649 2.81248 7.7369 3.18706 8.02637 3.31413L9.09781 3.78449ZM15.4708 17.54H11.6214V13.0815H16.4057V16.6159C16.4057 17.1262 15.9871 17.54 15.4708 17.54ZM16.4057 11.6214H11.6214V6.62219H15.4708C15.9871 6.62219 16.4057 7.0359 16.4057 7.54624V11.6214ZM10.1443 11.6214V6.62219H6.29484C5.77852 6.62219 5.35995 7.0359 5.35995 7.54624V11.6214H10.1443ZM5.35995 13.0815V16.6159C5.35995 17.1262 5.77852 17.54 6.29484 17.54H10.1443V13.0815H5.35995ZM13.4183 2.72546L12.9425 3.78449L14.0139 3.31413C14.3034 3.18706 14.3738 2.81248 14.1498 2.59112C13.9259 2.36975 13.5469 2.43935 13.4183 2.72546Z" fill="white"></path>
</svg>