<svg xmlns="http://www.w3.org/2000/svg" width="300" height="67" fill="none" viewBox="0 0 300 67"><path fill="#ffffff33" d="M29.427 41.945a51.497 51.497 0 0 0-.71-.185l1.999-8.01c.247.063.55.13.893.208 3.071.689 9.364 2.1 8.307 6.34-1.032 4.144-7.52 2.43-10.49 1.646Zm11.614-13.371c-.94 3.768-6.34 2.327-8.815 1.666a45.42 45.42 0 0 0-.596-.156l1.811-7.264c.208.051.462.108.75.171 2.563.568 7.81 1.73 6.85 5.583Z"/><path fill="#ffffff33" fill-rule="evenodd" d="M65.774 41.386c-4.43 17.766-22.423 28.578-40.19 24.147C7.823 61.104-2.99 43.11 1.442 25.345 5.87 7.577 23.863-3.235 41.626 1.194 59.393 5.623 70.203 23.62 65.774 41.386ZM48.229 28.64c.66-4.412-2.7-6.784-7.293-8.367l1.49-5.977-3.639-.907-1.45 5.82c-.957-.238-1.94-.463-2.916-.686l1.462-5.858-3.637-.907-1.491 5.975c-.792-.18-1.57-.358-2.324-.546l.005-.018-5.018-1.253-.968 3.886s2.7.618 2.643.657c1.473.368 1.74 1.343 1.695 2.116L24.688 31l-1.983 7.949c-.18.448-.638 1.119-1.668.864.037.053-2.644-.66-2.644-.66l-1.807 4.165 4.735 1.18c.52.13 1.034.265 1.542.397l.026.007 1.026.266-1.506 6.046 3.635.907 1.491-5.982c.993.27 1.957.518 2.9.752l-1.486 5.954 3.638.906 1.506-6.034c6.204 1.174 10.87.7 12.834-4.911 1.582-4.518-.08-7.125-3.343-8.824 2.377-.548 4.167-2.112 4.645-5.342Zm62.966-9.445c-3.861-1.87-8.475-1.58-12.313.15L103.48.2l-11.5 1.784-12.838 53.944c2.852 1.38 6.006 2.092 9.13 2.528 5.276.712 10.875.58 15.802-1.602 5.878-2.599 10.419-7.354 12.877-13.28 2.054-4.946 2.526-10.737 1.077-15.918-1.037-3.672-3.372-6.775-6.833-8.46Zm-10.907 29.242c-2.686 1.466-5.697 1.474-8.603.96l4.894-20.33c1.543-1.356 3.684-1.933 5.716-1.933 2.125 0 3.588.671 4.379 2.004 1.877 3.178 1.423 7.802.222 11.135-1.212 3.363-3.428 6.432-6.608 8.164Z" clip-rule="evenodd"/><path fill="#ffffff33" d="M130.764 57.79h-10.983l9.275-39.03h11.058l-9.35 39.03Zm5.345-43.785c-4.653 0-7.286-4.321-5.387-8.493 1.258-2.716 4.006-4.564 7.018-4.564 3.289 0 6.006 2.17 6.006 5.564 0 4.058-3.591 7.493-7.637 7.493Zm25.135-6.751L149.74 9.036l-7.276 30.719c-.989 4.211-1.839 9.142 0 13.242 2.096 4.627 7.35 5.677 11.951 5.677 3.788 0 7.431-.696 10.984-1.998l-.819-8.462c-2.196.772-4.494 1.262-6.827 1.262-1.833 0-4.109-.344-4.897-2.265-.738-1.783-.324-3.954.151-5.75l3.262-13.652h12.245l2.225-9.05h-12.32l2.825-11.505Zm9.01 34.95c0-3.362.545-6.532 1.632-9.5 1.086-2.97 2.65-5.568 4.679-7.797 4.367-4.79 10.648-7.195 17.065-7.195 3.712 0 7.402.688 10.763 2.3l-3.788 8.613c-2.266-.918-4.511-1.56-6.974-1.56-3.665 0-6.564 1.263-8.721 3.782-2.148 2.52-3.23 5.913-3.23 10.17 0 5.007 2.391 8.458 7.645 8.458 2.633 0 5.293-.527 7.72-1.556l.82 8.83c-3.43 1.33-6.926 2.075-10.614 2.075-4.802 0-9.714-1.284-13.057-4.932-1.391-1.514-2.39-3.281-3.007-5.31a21.766 21.766 0 0 1-.933-6.378Z"/><path fill="#ffffff33" fill-rule="evenodd" d="M219.045 58.825c6.477 0 12.439-2.952 16.399-8.087 1.832-2.378 3.22-5.053 4.156-8.012.934-2.973 1.405-5.945 1.405-8.91 0-2.372-.319-4.54-.964-6.49-2.114-6.448-7.9-9.614-14.471-9.614-6.433 0-12.278 3.061-16.241 8.094-1.886 2.372-3.311 5.041-4.271 8.012-1.582 4.861-2.116 10.47-.483 15.396 2.141 6.456 7.875 9.61 14.47 9.61Zm5.489-31.76c4.5 0 5.496 4.072 5.496 7.866 0 1.532-.212 3.156-.627 4.86-1.098 4.42-4.173 9.685-9.318 9.685-6.354 0-5.944-8.331-4.863-12.727.424-1.706 1.052-3.274 1.899-4.713 1.586-2.713 4.127-4.97 7.413-4.97Z" clip-rule="evenodd"/><path fill="#ffffff33" d="M252.974 57.79h-10.993l9.275-39.03h11.064l-9.346 39.03Zm5.336-43.785c-4.651 0-7.28-4.326-5.379-8.493 1.241-2.715 4.011-4.564 7.009-4.564 3.289 0 6.018 2.166 6.018 5.564 0 4.062-3.604 7.493-7.648 7.493Zm11.925 6.53-8.983 37.25h11.06l7.199-30.199a22.317 22.317 0 0 1 4.376-.45c5.984 0 4.965 5.884 4.006 10.02l-4.896 20.63h11.056l5.052-21.074c1.429-5.835 1.048-10.438-1.155-13.802-2.204-3.363-6.197-5.05-11.99-5.05-5.51 0-10.488 1.145-15.725 2.675Z"/></svg>