<svg viewBox="0 0 32 32" fill="#74123a" xmlns="http://www.w3.org/2000/svg">
<g>
<path d="M19.9785 23.1666C19.9785 24.1349 19.1935 24.9199 18.2251 24.9199L1.5011 24.9199C0.53276 24.9199 -0.25223 24.1349 -0.25223 23.1666C-0.25223 22.1983 0.532761 21.4133 1.5011 21.4133L18.2251 21.4133C19.1935 21.4133 19.9785 22.1983 19.9785 23.1666Z"></path>
<path d="M24.9293 17.9067L23.2243 19.6116C22.566 20.27 22.566 21.3375 23.2243 21.9958C23.8827 22.6542 24.9502 22.6542 25.6085 21.9958L30.2591 17.3452C30.9175 16.6868 30.9175 15.6194 30.2591 14.961L25.6085 10.3104C24.9502 9.65204 23.8827 9.65204 23.2243 10.3104C22.566 10.9688 22.566 12.0362 23.2243 12.6946L24.9297 14.4L1.5011 14.4C0.532761 14.4 -0.252229 15.185 -0.252229 16.1534C-0.252229 17.1217 0.532761 17.9067 1.5011 17.9067L24.9293 17.9067Z"></path>
<path d="M19.9785 9.13996C19.9785 10.1083 19.1935 10.8933 18.2251 10.8933L1.5011 10.8933C0.532761 10.8933 -0.252229 10.1083 -0.252229 9.13996C-0.252228 8.17162 0.532762 7.38663 1.5011 7.38663L18.2251 7.38663C19.1935 7.38663 19.9785 8.17162 19.9785 9.13996Z"></path>
</g>
</svg>