<svg width="16" height="16" viewBox="0 0 16 16" fill="none" xmlns="http://www.w3.org/2000/svg">
<g clip-path="url(#svg-876f72)">
<path fill-rule="evenodd" clip-rule="evenodd" d="M8.30009 -0.00390625H2.7667C1.21735 -0.00390625 0 1.21344 0 2.76279V12.7229C0 14.2722 1.21735 15.4896 2.7667 15.4896H8.30009C9.84944 15.4896 11.0668 14.2722 11.0668 12.7229V2.76279C11.0668 1.21344 9.84944 -0.00390625 8.30009 -0.00390625ZM8.06931 7.36041C7.05142 6.59441 6.36998 5.56188 5.92845 4.63745C5.73307 4.2284 5.68106 4.02392 5.62906 4.02393C5.57706 4.02393 5.52507 4.22847 5.32974 4.63745C4.88822 5.56188 4.20673 6.59437 3.18869 7.36041C2.83861 7.62383 2.66357 7.68469 2.66357 7.74554C2.66357 7.80639 2.83861 7.86724 3.18869 8.13066C4.20656 8.89658 4.88799 9.92885 5.32952 10.8532C5.52493 11.2623 5.57694 11.4668 5.62896 11.4668C5.68098 11.4668 5.73302 11.2623 5.92845 10.8532C6.36998 9.92884 7.05142 8.89657 8.06931 8.13064C8.41937 7.86723 8.59439 7.80638 8.59439 7.74554C8.59439 7.68469 8.41936 7.62384 8.06931 7.36041Z" fill="white"></path>
<path d="M14.6634 3.64821L12.1733 2.1542V13.1656L15.604 7.46625C16.3787 6.13824 15.9914 4.42289 14.6634 3.64821Z" fill="white"></path>
</g>
<defs>
<clipPath id="svg-876f72">
<rect width="16" height="16" fill="white"></rect>
</clipPath>
</defs>
</svg>