<svg xmlns="http://www.w3.org/2000/svg" width="17" height="17" fill="#fff" viewBox="0 0 17 17"><g><path fill-rule="evenodd" d="M4.28 8.655a4.396 4.396 0 0 0 8.084 0c1.366-.047 2.363-.668 3.01-1.467.65-.805.948-1.792.948-2.559V3.434c0-.953-.773-1.725-1.726-1.725h-1.463l.024-.268.058-.75a.493.493 0 0 0-.491-.53H3.92a.493.493 0 0 0-.492.53l.059.75.023.268H2.047c-.953 0-1.725.772-1.725 1.725V4.63c0 .767.297 1.754.949 2.56.646.798 1.642 1.419 3.008 1.466ZM3.953 7.14c-.122-.989-.215-2.308-.303-3.554l-.028-.4H2.047a.247.247 0 0 0-.246.247V4.63c0 .432.184 1.09.62 1.63.34.42.832.77 1.533.882Zm9.067-3.953-.028.399c-.088 1.246-.181 2.565-.303 3.554a2.406 2.406 0 0 0 1.533-.883c.436-.539.62-1.197.62-1.629V3.434a.246.246 0 0 0-.247-.246h-1.575Zm-4.7 9.43a4.383 4.383 0 0 1-1.656-.323c-.278-.114-.61.002-.72.281l-1.128 2.876a.493.493 0 0 0 .46.673h6.09c.347 0 .586-.35.459-.673l-1.128-2.876c-.11-.28-.442-.395-.72-.282a4.382 4.382 0 0 1-1.657.324Z" clip-rule="evenodd"></path></g><defs></defs></svg>