<svg xmlns="http://www.w3.org/2000/svg" width="300" height="72" fill="none" viewBox="0 0 300 72"><path fill="#ffffff33" d="M51.853.316C23.281.316.166 13.853.166 30.66c0 7.126 4.18 13.622 11.264 18.909-3.482-4.317-5.458-9.102-5.458-14.235 0-17.394 22.647-31.501 50.53-31.501 17.998 0 33.8 5.84 42.739 14.711C91.263 7.783 72.993.316 51.853.316Z"/><path fill="#ffffff33" fill-rule="evenodd" d="M151.117 47.524v-8.7h8.616c6.045 0 10.813-1.516 14.303-4.547 3.491-3.031 5.233-7.288 5.228-12.77 0-5.54-1.925-9.851-5.773-12.933-3.638-2.929-8.559-4.396-14.762-4.402h-11.528c-5.705 0-8.846 2.267-8.846 8.173V47.5c0 5.488 2.126 8.236 6.377 8.241 4.251.006 6.38-2.733 6.385-8.216Zm0-32.684h5.534c5.846 0 8.769 2.214 8.769 6.64 0 4.541-2.923 6.812-8.769 6.812h-5.534V14.84Zm64.073 40.9c4.092 0 6.141-2.755 6.147-8.266V24.716c0-5.466-2.049-8.199-6.147-8.199a6.629 6.629 0 0 0-5.96 3.568 13.003 13.003 0 0 0-9.995-4.053c-5.356-.13-10.598 2.214-14.073 6.292a20.066 20.066 0 0 0-5.194 13.75c-.111 7.55 4.241 15.182 11.202 18.346a17.547 17.547 0 0 0 7.639 1.567c4.41 0 7.896-1.419 10.455-4.257 1.235 2.657 3.202 3.985 5.96 3.985l-.034.026Zm-20.391-26.01a7.294 7.294 0 0 1 6.045-2.86 7.112 7.112 0 0 1 3.38.675c3.111 1.473 4.632 5.1 4.53 8.41a10.573 10.573 0 0 1-1.839 6.291 7.098 7.098 0 0 1-6.045 2.937 7.25 7.25 0 0 1-3.427-.707c-3.134-1.504-4.712-5.17-4.61-8.522a9.919 9.919 0 0 1 1.992-6.223h-.026Z" clip-rule="evenodd"/><path fill="#ffffff33" d="m250.171 20.996-7.611 18.032-7.075-17.027c-.982-2.948-2.885-5.698-6.3-5.509a6.146 6.146 0 0 0-4.342 1.61c-1.992 1.818-2.108 4.793-1.014 7.134l12.533 26.622-5.108 10.123c-1.288 2.481-1.611 5.796.68 7.79a6.628 6.628 0 0 0 4.462 1.465c2.208 0 4.03-1.516 5.465-4.547l18.995-40.866a9.528 9.528 0 0 0 .996-3.916c0-3.593-2.052-5.39-6.156-5.39-2.358 0-4.171 1.5-5.457 4.479h-.068Zm42.163 23.695h-12.277l16.508-19.284c1.702-1.958 2.554-3.612 2.554-4.963a2.656 2.656 0 0 0-1.924-2.835 21.424 21.424 0 0 0-5.917-.596H271.33c-5.284 0-7.927 1.702-7.927 5.108 0 3.406 2.617 5.131 7.85 5.176h10.719l-17.027 20.059a6.744 6.744 0 0 0-1.848 4.342c0 2.321 2.179 3.485 6.539 3.49h22.681c5.232 0 7.849-1.722 7.849-5.167 0-3.542-2.585-5.316-7.756-5.321l-.076-.009Z"/><path fill="#ffffff33" fill-rule="evenodd" d="M112.694 56.32c-11.381 0-21.412-8.414-21.114-20.211-.281-11.547 9.747-20.314 21.072-20.314 11.357.01 21.318 8.696 21.012 20.28.364 11.582-9.629 20.246-20.97 20.246Zm-8.25-20.296c-.15 4.717 3.103 9.79 8.225 9.578 5.177.234 8.408-4.803 8.233-9.578.127-4.703-3.143-9.709-8.233-9.502-5.178-.252-8.38 4.722-8.225 9.502ZM47.306 39.24a8.753 8.753 0 0 0 5.108-1.327 4.825 4.825 0 0 0 2.23-4.257 15.393 15.393 0 0 0-3.396-9.587C47.237 18.85 40.9 15.807 34.33 15.896c-6.108 0-11.12 1.987-15.036 5.96a19.642 19.642 0 0 0-5.883 14.337 18.73 18.73 0 0 0 1.537 7.78c3.393 7.841 11.637 12.177 19.978 12.185a32.066 32.066 0 0 0 9.459-1.354c3.581-1.073 6.195-2.633 7.84-4.682a5.279 5.279 0 0 0 1.388-3.355c0-2.934-1.64-4.404-4.92-4.41-.724 0-2.555.621-5.543 1.856a20.502 20.502 0 0 1-7.611 1.847c-3.123.121-6.78-1.058-8.46-3.871a6.683 6.683 0 0 1-.922-2.863l21.148-.085ZM28.848 26.973a8.403 8.403 0 0 1 5.542-1.856c2.886-.075 5.898 1.425 7.251 4.035.43.827.683 1.735.744 2.666h-16.38a8.275 8.275 0 0 1 2.843-4.844Z" clip-rule="evenodd"/><path fill="#ffffff33" d="M76.604 56.09c-11.671.01-20.603-8.163-20.603-20.016 0-5.891 1.947-10.716 5.84-14.473 3.893-3.758 9.059-5.64 15.495-5.645 3.005-.06 5.997.413 8.837 1.396 3.118 1.19 6.268 4.161 4.744 7.732-1.485 3.471-5.623 3.308-8.592 2.093a13.987 13.987 0 0 0-4.955-.851 7.875 7.875 0 0 0-6.538 2.937 10.436 10.436 0 0 0-2.07 6.624c-.278 5.441 3.67 9.552 9.076 9.552a13.62 13.62 0 0 0 4.845-.851 10.857 10.857 0 0 1 3.686-.852c2.684-.115 4.876 2.175 4.828 4.845.005 2.287-1.737 4.222-5.228 5.806a23.123 23.123 0 0 1-9.365 1.703Z"/></svg>