<svg xmlns="http://www.w3.org/2000/svg" width="300" height="72" fill="none" viewBox="0 0 300 72"><path fill="#ffffff33" d="m.083 36.445 21.69 12.766 21.689-12.828L21.772.422.084 36.445Z"/><path fill="#ffffff33" d="m.083 40.556 21.69 30.591v-.041l21.71-30.57-21.71 12.806L.082 40.556Z"/><path fill="#ffffff33" fill-rule="evenodd" d="m85.643 42.58.021.041a11.095 11.095 0 0 0-10.66-11.402A11.072 11.072 0 0 0 64.43 42.643a11.07 11.07 0 0 0 10.576 11.423 10.33 10.33 0 0 0 9.13-4.792.912.912 0 0 0-.22-1.201.935.935 0 0 0-1.35.271 8.596 8.596 0 0 1-7.54 3.863 9.172 9.172 0 0 1-8.675-8.676h18.343c.518 0 .95-.432.95-.95Zm-4.704-6.864a9.11 9.11 0 0 1 2.66 6.017H66.247a9.17 9.17 0 0 1 8.675-8.675 9.108 9.108 0 0 1 6.017 2.658Z" clip-rule="evenodd"/><path fill="#ffffff33" d="M107.849 31.674h-.48l-4.353-.041v-7.085a.917.917 0 0 0-1.095-.91.954.954 0 0 0-.744.93v7.085h-4.73a.96.96 0 0 0-.91.91.9.9 0 0 0 .91.908h4.73v19.334c0 .5.418.919.919.919.5 0 .92-.418.92-.92V33.493h4.833a.897.897 0 0 0 .909-.91.938.938 0 0 0-.909-.908Zm30.096 20.966V40.948l-.041.02c0-4.998-3.078-9.728-8.468-9.728a8.844 8.844 0 0 0-7.685 4.73V14.24c0-.5-.419-.919-.919-.919a.929.929 0 0 0-.92.92v38.378a.92.92 0 0 0 .95.927.94.94 0 0 0 .889-.948v-9.563c-.331-5.04 2.106-9.977 7.746-9.977 4.4 0 6.631 3.945 6.631 7.89V52.64c-.012.5.41.921.909.909a.936.936 0 0 0 .908-.909Z"/><path fill="#ffffff33" fill-rule="evenodd" d="M170.811 42.58c.029.059.111-2.283-.589-4.228a10.64 10.64 0 0 0-20.625 4.27 11.067 11.067 0 0 0 10.575 11.422 10.334 10.334 0 0 0 9.151-4.771.927.927 0 0 0-.051-1.036c-.394-.501-1.192-.439-1.519.106a8.588 8.588 0 0 1-7.539 3.863 9.172 9.172 0 0 1-8.677-8.676h18.323a.96.96 0 0 0 .951-.95Zm-4.586-6.981a8.675 8.675 0 0 1 2.541 6.134h-17.352a8.675 8.675 0 0 1 14.811-6.134Z" clip-rule="evenodd"/><path fill="#ffffff33" d="M193.264 32.541c0-.758-.536-.911-.868-.888a9.786 9.786 0 0 0-7.787 5.143v-4.13a.917.917 0 0 0-.689-.902.91.91 0 0 0-.405-.008.939.939 0 0 0-.744.93V52.66a.917.917 0 0 0 1.094.909.952.952 0 0 0 .744-.93v-8.778c0-5.143 2.417-9.543 7.808-10.328a.908.908 0 0 0 .847-.992Z"/><path fill="#ffffff33" fill-rule="evenodd" d="M223.547 42.6c0 .089.088-2.27-.609-4.207a10.646 10.646 0 0 0-10.008-7.03 10.638 10.638 0 0 0-10.618 11.3 11.068 11.068 0 0 0 10.576 11.422 10.324 10.324 0 0 0 9.131-4.792c.281-.46.103-1.082-.393-1.301a.955.955 0 0 0-1.178.372 8.587 8.587 0 0 1-7.539 3.862 9.173 9.173 0 0 1-8.677-8.675h18.365c.516 0 .95-.43.95-.95Zm-4.607-6.96a8.675 8.675 0 0 1 2.541 6.135H204.13a8.675 8.675 0 0 1 14.81-6.135Z" clip-rule="evenodd"/><path fill="#ffffff33" d="M253.127 52.743V32.686c-.022-.546-.508-1.011-1.062-.905a.936.936 0 0 0-.755.905v7.477c0 6.383-1.426 12.167-7.622 12.167-4.401 0-6.631-3.946-6.631-7.89V32.685a.929.929 0 0 0-.92-.92.93.93 0 0 0-.919.92v11.732c0 5 3.015 9.729 8.47 9.729a8.587 8.587 0 0 0 7.622-5.184v3.78c-.013.5.409.92.909.908a.937.937 0 0 0 .908-.908Zm46.436-.042V40.948l.021.042c0-5-3.078-9.647-8.469-9.647a9.082 9.082 0 0 0-8.262 5.846 8.26 8.26 0 0 0-7.809-5.846 8.8 8.8 0 0 0-7.685 4.669v-3.347a.921.921 0 0 0-1.094-.909.939.939 0 0 0-.744.93v20.098a.922.922 0 0 0 1.095.909.937.937 0 0 0 .743-.93v-9.295c-.206-5.928 2.108-10.328 7.685-10.328 4.4 0 6.631 3.863 6.631 7.808v11.774c-.012.5.407.921.909.909a.938.938 0 0 0 .908-.91v-9.067c0-4.606 2.108-10.514 7.623-10.514 4.4 0 6.63 3.863 6.63 7.808v11.753a.9.9 0 0 0 .909.91.939.939 0 0 0 .909-.91Z"/></svg>