<svg xmlns="http://www.w3.org/2000/svg" width="17" height="17" fill="#fff" viewBox="0 0 17 17"><g><path d="M10.918 1.226a.759.759 0 0 1 1.518 0v5.98c0 .186.198.338.477.338a.58.58 0 0 0 .356-.108.293.293 0 0 0 .123-.23V2.95a.759.759 0 0 1 1.518 0l.007 7.866c0 .135-.004.269-.01.399a4.669 4.669 0 0 1-.607 2.634c-.045.09-.085.16-.119.207a1.617 1.617 0 0 1-.23.318 4.683 4.683 0 0 1-3.725 1.84c-2.021 0-3.493-1.296-4.404-3.072-.893-1.74-1.773-3.49-2.715-5.205-.546-.991.513-1.912 1.388-.991l1.517 1.543V2.217a.759.759 0 1 1 1.518 0v4.988c0 .115.077.216.193.277.072.039.16.062.252.062.278 0 .473-.152.473-.339v-5.98a.759.759 0 0 1 1.518 0v5.98c0 .187.217.339.464.339.248 0 .488-.152.488-.339v-5.98Z"></path></g><defs></defs></svg>