<svg xmlns="http://www.w3.org/2000/svg" width="17" height="17" fill="#fff" viewBox="0 0 17 17"><g><path d="M10.478 5.95v.95H7.005v-.95a1.736 1.736 0 0 1 3.473 0Z"></path><path fill-rule="evenodd" d="M4.992.84a3.75 3.75 0 0 0-3.75 3.75v7.5a3.75 3.75 0 0 0 3.75 3.75h7.5a3.75 3.75 0 0 0 3.75-3.75v-7.5a3.75 3.75 0 0 0-3.75-3.75h-7.5ZM4.417 8.66c0-.734.45-1.363 1.088-1.627V5.951a3.236 3.236 0 1 1 6.473 0v1.08a1.76 1.76 0 0 1 1.09 1.628v3.548c0 .971-.787 1.759-1.758 1.759H6.175a1.759 1.759 0 0 1-1.758-1.759V8.66Z" clip-rule="evenodd"></path></g><defs></defs></svg>