<svg xmlns="http://www.w3.org/2000/svg" width="300" height="68" fill="none" viewBox="0 0 300 68"><path fill="#ffffff33" fill-rule="evenodd" d="M33.964 0C47.555 0 60.14 8.41 65.342 20.966a33.963 33.963 0 0 1 2.585 12.998c0 21.089-19.906 37.425-40.59 33.31C6.655 63.16-5.484 40.45 2.586 20.967 7.787 8.41 20.372 0 33.964 0ZM30.98 47.002l3.533-11.921 5.447-1.586 1.159-3.919-5.398 1.644 5.75-19.578a.979.979 0 0 0-.936-1.233h-7.312a1.318 1.318 0 0 0-1.24.945l-6.852 23.152-5.406 1.643-1.191 3.853 5.397-1.643-4.88 16.48h28.862a1.325 1.325 0 0 0 1.249-.936l1.643-5.66a.98.98 0 0 0-.929-1.241H30.981Z" clip-rule="evenodd"/><path fill="#ffffff33" d="M124.038 56.578h-5.791V24.2h5.791v32.378Zm-2.927-38.231c-2.199 0-3.736-1.623-3.736-3.798 0-2.13 1.574-3.798 3.736-3.798 2.119 0 3.736 1.707 3.736 3.798 0 2.137-1.579 3.798-3.736 3.798Zm-8.813 33.001v5.23H86.333v-43.15h6.04v37.92h19.925ZM151.679 24.2h-12.266V14.176l-5.791.996v28.89c0 4.821.772 10.325 5.791 12.391 1.453.54 3.279.81 5.479.81 2.679 0 5.613-.532 8.032-1.743l-1.12-4.795c-2.133.853-4.081 1.432-6.414 1.432-.996 0-1.867-.124-2.615-.373-3.139-1.047-3.362-5.013-3.362-7.783V29.057h12.266V24.2Z"/><path fill="#ffffff33" fill-rule="evenodd" d="M156.634 40.451c0-6.566 2.809-13.445 9.278-16.002a14.778 14.778 0 0 1 5.479-1.058c4.358 0 7.7 1.37 10.025 4.11 3.195 3.709 4.025 9.64 3.424 14.445h-22.166c.482 6.51 4.324 10.273 10.896 10.273 2.808 0 5.712-.347 8.282-1.556l.809 4.857c-2.836 1.5-6.578 1.805-9.714 1.805-2.822 0-5.271-.415-7.347-1.245-3.888-1.667-6.72-4.827-8.032-8.842-.623-2.075-.934-4.337-.934-6.787Zm22.229-3.175c.041-2.615-.623-4.753-1.993-6.413-1.328-1.702-3.175-2.553-5.541-2.553-1.328 0-2.512.27-3.55.81-3.119 1.56-4.611 4.827-4.981 8.156h16.065Z" clip-rule="evenodd"/><path fill="#ffffff33" d="M200.381 56.08c1.992.83 4.296 1.245 6.912 1.245 2.7 0 6.319-.157 8.654-1.619l-.809-4.856c-2.174 1.023-4.72 1.37-7.098 1.37-1.91 0-3.529-.27-4.857-.81-2.664-1.165-4.378-3.402-5.168-6.164-.373-1.453-.561-3.051-.561-4.795 0-6.412 3.011-11.954 10.025-11.954 2.261 0 4.609.392 6.662 1.37l1.308-4.92c-2.695-1.094-5.629-1.556-8.53-1.556-2.366 0-4.525.436-6.476 1.307-6.2 2.696-9.028 9.306-9.028 15.753 0 2.491.332 4.774.996 6.85 1.299 3.979 4.108 7.135 7.97 8.779Z"/><path fill="#ffffff33" fill-rule="evenodd" d="M249.953 40.39c0 2.573-.373 4.897-1.121 6.973-2.187 6.076-7.589 10.024-14.071 10.024-6.514 0-11.879-3.93-14.073-10.024-.747-2.076-1.12-4.4-1.12-6.974 0-2.532.373-4.836 1.12-6.911 2.152-6.096 7.557-10.087 14.073-10.087 6.484 0 11.926 4.01 14.071 10.087.748 2.075 1.121 4.379 1.121 6.911Zm-6.04 0c0-5.635-2.694-11.893-9.152-11.893-6.51 0-9.153 6.219-9.153 11.892 0 5.711 2.609 11.893 9.153 11.893 6.492 0 9.152-6.221 9.152-11.893Z" clip-rule="evenodd"/><path fill="#ffffff33" d="M258.1 56.578h5.791V24.2H258.1v32.378Zm2.864-38.231c2.156 0 3.736-1.662 3.736-3.798 0-2.091-1.617-3.798-3.736-3.798-2.162 0-3.736 1.669-3.736 3.798 0 2.175 1.537 3.798 3.736 3.798Zm12.885 6.787c1.328-.332 3.092-.685 5.292-1.058 2.2-.374 4.733-.56 7.597-.56 2.573 0 4.711.373 6.413 1.12 5.559 2.305 6.849 8.307 6.849 13.76v18.182h-5.791V39.642c0-1.992-.145-3.694-.436-5.106-.497-2.822-1.722-4.545-3.798-5.292-1.037-.415-2.324-.623-3.86-.623-2.158 0-4.358.199-6.475.623v27.334h-5.791V25.134Z"/></svg>