<svg xmlns="http://www.w3.org/2000/svg" width="114" height="28" fill="none" viewBox="0 0 114 28"><path fill="#FF0068" d="M22.53 18.5c-.73-1.872-1.892-3.315-3.456-4.321 1.776-.982 3.322-2.38 4.604-4.175 1.712-2.392 2.854-5.15 3.392-8.195l.167-.962h-5.515l-.167.962c-.57 3.25-1.827 5.765-3.732 7.477-1.91 1.718-4.206 2.552-7.021 2.552h-1.77L10.975.847H5.53L.76 27.908h5.444L8.14 16.917h1.77c2.04 0 3.713.423 4.976 1.263 1.27.84 2.11 1.982 2.572 3.47.468 1.513.526 3.289.173 5.29l-.167.962h5.515l.167-.962c.558-3.149.346-5.99-.61-8.446l-.006.007Zm30.249 4.105-.936 5.303h-23.83l2.854-16.186h22.566l-.936 5.304H35.375l-.981 5.579h18.385ZM90.53.847l-.95 5.373h8.978l-3.822 21.688h5.515l3.822-21.688h8.978L114 .847H90.53ZM77.41 15.39 66.63.848h-4.976l-4.772 27.061h5.515l3.31-18.75L76.05 23.085l-.853 4.822h5.515l4.77-27.06h-5.514L77.409 15.39ZM56.613.847l-1.244 7.06h-23.83l1.245-7.06 5.489 2.66 6.425-2.66 5.49 2.66 6.425-2.66Z"/></svg>