<svg xmlns="http://www.w3.org/2000/svg" fill="none" viewBox="0.88 10 182.75 33.42"><path fill="#FF0068" d="M28.08 31.802c-.913-2.313-2.363-4.095-4.317-5.338 2.219-1.212 4.15-2.938 5.752-5.155 2.139-2.954 3.565-6.36 4.237-10.121L33.961 10h-6.89l-.208 1.188c-.713 4.015-2.283 7.12-4.663 9.234-2.387 2.122-5.255 3.151-8.772 3.151h-2.21L13.644 10H6.843L.883 43.419h6.801l2.42-13.573h2.21c2.548 0 4.64.522 6.217 1.56 1.587 1.037 2.636 2.447 3.213 4.284.585 1.869.657 4.062.216 6.533l-.208 1.188h6.89l.208-1.188c.697-3.888.432-7.396-.761-10.43l-.008.009Zm37.79 5.068-1.17 6.549H34.93l3.565-19.988h28.191l-1.17 6.55H44.128l-1.226 6.889H65.87ZM113.03 10l-1.186 6.636h11.216l-4.775 26.783h6.89l4.775-26.783h11.215L142.351 10H113.03ZM96.64 27.96 83.172 10h-6.217l-5.96 33.419h6.89l4.133-23.156 12.922 17.2-1.066 5.956h6.89L106.725 10h-6.89L96.64 27.96ZM70.659 10l-1.554 8.719h-29.77L40.89 10l6.857 3.287L55.774 10l6.858 3.287L70.659 10Z"/><path fill="#F6F6F6" d="M146.331 29.844c-.627 0-1.165-.11-1.615-.329a3.207 3.207 0 0 1-1.102-.854 3.615 3.615 0 0 1-.617-1.146c-.133-.413-.2-.81-.2-1.192v-.207c0-.425.067-.845.2-1.258.139-.413.351-.789.636-1.127a3.059 3.059 0 0 1 1.083-.807c.443-.207.966-.31 1.567-.31.627 0 1.172.113 1.634.338.469.219.842.532 1.121.939.279.4.446.87.503 1.408h-1.358a1.612 1.612 0 0 0-.342-.788 1.54 1.54 0 0 0-.655-.489 2.295 2.295 0 0 0-.903-.169c-.342 0-.646.06-.911.179a1.725 1.725 0 0 0-.665.488 2.26 2.26 0 0 0-.409.751 3.267 3.267 0 0 0-.133.958c0 .338.045.65.133.939.095.288.234.541.418.76.184.213.409.38.675.498.272.119.585.179.94.179.519 0 .956-.126 1.311-.376.361-.257.579-.613.655-1.07h1.358a3.098 3.098 0 0 1-.503 1.342 2.923 2.923 0 0 1-1.121.977c-.475.244-1.042.366-1.7.366Zm3.904-.178 2.365-6.855h2.204l2.431 6.855h-1.387l-2.061-5.944.485.206h-1.188l.494-.206-1.994 5.944h-1.349Zm1.652-1.822.428-1.127h2.812l.417 1.127h-3.657Zm8.887 2c-.614 0-1.134-.097-1.558-.291-.418-.194-.738-.46-.959-.798a2.102 2.102 0 0 1-.333-1.165h1.321c0 .182.05.36.152.536.101.169.262.306.484.413.228.106.526.16.893.16.329 0 .605-.048.826-.141.222-.094.387-.216.494-.367a.905.905 0 0 0 .162-.525.673.673 0 0 0-.314-.583c-.209-.15-.532-.244-.969-.281l-.607-.047c-.665-.057-1.197-.26-1.596-.61-.393-.357-.589-.827-.589-1.409 0-.438.104-.814.313-1.127.209-.319.501-.563.874-.732.38-.175.823-.263 1.33-.263.526 0 .978.09 1.358.272.38.182.675.438.884.77.209.326.313.71.313 1.155h-1.32a.977.977 0 0 0-.143-.516.925.925 0 0 0-.408-.385c-.177-.1-.405-.15-.684-.15-.266 0-.488.043-.665.13a.926.926 0 0 0-.399.358.94.94 0 0 0-.133.488c0 .213.079.4.238.563.158.157.408.248.75.273l.608.056c.494.038.928.14 1.301.31.374.169.662.397.865.685.209.288.313.636.313 1.043 0 .431-.114.813-.342 1.145-.228.326-.554.58-.978.76-.418.182-.912.273-1.482.273Zm4.244-.178V22.81h1.349v6.855h-1.349Zm3.269 0V22.81h2.214l2.916 5.747h.313l-.19.169V22.81h1.273v6.855h-2.223l-2.916-5.747h-.323l.19-.169v5.916h-1.254Zm11.685.178c-.626 0-1.171-.11-1.633-.329a3.48 3.48 0 0 1-1.14-.854 3.924 3.924 0 0 1-.675-1.146 3.596 3.596 0 0 1-.218-1.192v-.207c0-.42.076-.835.228-1.249a3.44 3.44 0 0 1 .684-1.136 3.38 3.38 0 0 1 1.149-.807c.456-.207.991-.31 1.605-.31.608 0 1.14.103 1.596.31.456.2.836.47 1.14.807.31.338.541.717.693 1.136a3.6 3.6 0 0 1 .228 1.25v.206c0 .382-.076.78-.228 1.192-.145.407-.37.789-.674 1.146a3.36 3.36 0 0 1-1.14.854c-.456.22-.994.329-1.615.329Zm0-1.24c.355 0 .672-.062.95-.187.285-.126.526-.298.722-.517.203-.225.355-.479.456-.76.108-.288.162-.592.162-.911 0-.344-.054-.66-.162-.948a2.063 2.063 0 0 0-.456-.752 2.029 2.029 0 0 0-.722-.497 2.44 2.44 0 0 0-.95-.179c-.354 0-.674.06-.959.179a2.12 2.12 0 0 0-.731.497 2.241 2.241 0 0 0-.456.752 2.822 2.822 0 0 0-.152.948c0 .32.05.623.152.91.107.282.259.536.456.761.202.22.446.392.731.517s.605.188.959.188Z"/></svg>