<svg xmlns="http://www.w3.org/2000/svg" width="17" height="17" fill="#fff" viewBox="0 0 17 17"><g><path d="M1.966 4.144 12.15 1.416c.72-.193 1.649-.206 2.07.511a1.317 1.317 0 0 1-.104 1.489L9.632 9.142c-.19.244-.453.41-.74.486a1.392 1.392 0 0 1-.884-.05L1.263 6.858a1.317 1.317 0 0 1-.835-1.236c.007-.833.818-1.286 1.538-1.479Z"></path><path d="M7.367 11.065a3.06 3.06 0 0 0 1.94.114 3.061 3.061 0 0 0 1.625-1.07c1.545-1.974 4.059-5.305 4.059-5.305l1.177 4.395c.424 1.583-.377 2.768-1.96 3.193L5.67 14.678c-1.583.424-2.87-.202-3.293-1.784L1.199 8.499s3.842 1.629 6.168 2.566Z"></path></g></svg>