<svg xmlns="http://www.w3.org/2000/svg" width="17" height="17" fill="#fff" viewBox="0 0 17 17"><g><path d="M9.494 4.809a2.358 2.358 0 1 0-2.108 0h-.917a.882.882 0 1 0 0 1.765h.42v.886c0 .788-.474 1.484-1.044 2.029a5.2 5.2 0 0 0-.59.673c-.804 1.09-1.105 2.436-1.402 3.758-.08.362-.162.722-.252 1.074-.173.675.282 1.346.912 1.346h7.857c.63 0 1.085-.671.912-1.346a36.31 36.31 0 0 1-.252-1.073c-.297-1.323-.599-2.67-1.402-3.759a5.196 5.196 0 0 0-.59-.673c-.57-.544-1.044-1.24-1.044-2.028v-.887h.414a.882.882 0 0 0 0-1.765h-.914Z"></path></g><defs></defs></svg>