<svg xmlns="http://www.w3.org/2000/svg" width="17" height="16" fill="#fff" viewBox="0 0 17 16"><path fill-rule="evenodd" d="M4.572.5a3.75 3.75 0 0 0-3.75 3.75v7.5a3.75 3.75 0 0 0 3.75 3.75h7.5a3.75 3.75 0 0 0 3.75-3.75v-7.5A3.75 3.75 0 0 0 12.072.5h-7.5Zm3.757 2.486c-.645 0-1.149.527-1.149 1.134 0 .606.505 1.15 1.149 1.15.63 0 1.135-.544 1.135-1.15 0-.607-.505-1.134-1.135-1.134Zm0 3.736c-.632 0-1.148.526-1.148 1.098v4.045c0 .607.504 1.15 1.148 1.15.63 0 1.135-.543 1.135-1.15V8.954l-.001-1.141c0-.598-.519-1.09-1.134-1.09Z" clip-rule="evenodd"></path></svg>