<svg xmlns="http://www.w3.org/2000/svg" width="17" height="17" fill="currentColor" viewBox="0 0 17 17"><g><path d="M2.555 2.574c-.275-.135-.367-.487-.158-.71 1.793-1.907 4.291-.161 5.58 2.003-.329-1.654.13-3.78 1.957-3.74.3.007.47.324.367.606L9.074 4.097c1.848-1.397 4.67-2.116 5.733.013.144.286-.079.602-.399.621l-4.997.302c2.274.329 5.046 2.02 4.38 4.412-.09.317-.48.392-.725.173L8.812 5.811c1.415 1.662 2.308 4.447.43 5.633-.276.174-.611-.036-.643-.361l-.48-4.902c-1.627 3.32-1.674 6.7-.82 9.236.115.34-.129.71-.488.71H4.726a.497.497 0 0 1-.498-.476c-.103-2.51-.05-6.652 3.06-9.844L1.954 7.588c-.305.102-.63-.11-.595-.43.248-2.307 3.182-3.202 5.78-2.337L2.554 2.574Z" fill='#fff'></path></g><defs></defs></svg>