<svg xmlns="http://www.w3.org/2000/svg" width="24" height="24" fill="none" viewBox="0 0 24 24"><path fill="#FF0068" d="m12 23 4.955-14H23L12 23Z"/><path fill="#AD1151" d="M12 23 7 9h10l-5 14Z"/><path fill="#8E043C" d="m1 9 11 14L7 9H1Z"/><path fill="#FF0068" d="m24 2-1 7H1l1-7 5 3 6-3 5 3 6-3Z"/><path fill="#DE005B" d="M7 5 2 2 1 9h11L7 5Z"/><path fill="#FF0068" d="m7 5 6-3 5 3-6 4-5-4Z"/><path fill="#DE005B" d="m23 9 1-7-6 3-6 4h11Z"/><path fill="#fff" d="M9.76 15.404V8h2.755c1.775 0 2.875.915 2.875 2.428 0 1.557-1.11 2.45-2.853 2.45H11.23v2.526H9.76Zm2.733-6.239H11.23v2.548h1.23c.937 0 1.427-.5 1.427-1.274 0-.773-.5-1.274-1.394-1.274Z"/></svg>