<svg width="17" height="16" viewBox="0 0 17 16" fill="none" xmlns="http://www.w3.org/2000/svg">
<g clip-path="url(#svg-bd1ab)">
<path fill-rule="evenodd" clip-rule="evenodd" d="M10.17 0.283001C8.38877 2.03991 6.33096 3.3805 3.85742 4.04328L5.53571 10.3068C8.00925 9.64398 10.4617 9.77606 12.8827 10.407C13.5165 10.5722 14.1241 10.0003 13.9546 9.36758L11.618 0.647201C11.4485 0.0145449 10.6363 -0.176944 10.17 0.283001ZM13.6162 2.63339C14.1491 2.4906 14.7169 2.56535 15.1947 2.84119C15.6725 3.11704 16.0211 3.57138 16.1639 4.10426C16.3067 4.63715 16.2319 5.20494 15.9561 5.68271C15.6802 6.16049 15.2259 6.50911 14.693 6.6519L13.6162 2.63339ZM0.661847 5.92215C1.08495 5.18931 1.78185 4.65456 2.59923 4.43555L4.25082 10.5994C3.43344 10.8184 2.56254 10.7038 1.8297 10.2807C1.09686 9.85753 0.562116 9.16064 0.343101 8.34326C0.124086 7.52589 0.238743 6.65499 0.661847 5.92215ZM5.8418 11.4157L7.73642 15.4433C7.9253 15.8445 8.37415 16.0528 8.80229 15.9381C9.35354 15.7904 9.63683 15.1798 9.39404 14.6635L7.6933 11.0488C7.07089 11.1302 6.45252 11.2521 5.8418 11.4157Z" fill="white"></path>
</g>
<defs>
<clipPath id="svg-bd1ab">
<rect width="16" height="16" fill="white" transform="translate(0.234375)"></rect>
</clipPath>
</defs>
</svg>