<svg xmlns="http://www.w3.org/2000/svg" width="17" height="17" fill="#fff" viewBox="0 0 17 17"><g><path fill-rule="evenodd" d="M.976 2.965A2.478 2.478 0 0 1 3.454.488H12.5a2 2 0 0 1 2 2v10.704h2.476v.524a2.477 2.477 0 0 1-2.476 2.476H5.454a2 2 0 0 1-2-2V3.488H.976v-.523Zm4.84.171a.619.619 0 1 0 0 1.238h6.32a.619.619 0 1 0 0-1.238h-6.32ZM5.199 6.85c0-.342.277-.619.619-.619h6.319a.619.619 0 1 1 0 1.238h-6.32a.619.619 0 0 1-.618-.619Zm.619 2.475a.619.619 0 1 0 0 1.238h6.319a.619.619 0 1 0 0-1.238h-6.32Zm-.62 3.713c0-.342.278-.619.62-.619h6.319a.619.619 0 0 1 0 1.238h-6.32a.619.619 0 0 1-.618-.619Z" clip-rule="evenodd"></path></g><defs></defs></svg>