<svg xmlns="http://www.w3.org/2000/svg" width="300" height="97" fill="none" viewBox="0 0 300 97"><path fill="#ffffff33" d="M47.085 53.338v.013c9.732-.438 16.997-2.14 16.997-4.177 0-2.037-7.259-3.739-16.997-4.177v6.653c-.283.025-1.8.154-4.831.154-2.525 0-4.356-.11-4.992-.154v-6.66c-9.751.433-17.036 2.14-17.036 4.178 0 2.043 7.278 3.745 17.036 4.177v-.007c.63.033 2.41.104 4.947.104 3.173 0 4.6-.084 4.875-.104Z"/><path fill="#ffffff33" fill-rule="evenodd" d="M82.783 49.645c0 22.144-17.89 40.095-39.957 40.095-22.068 0-39.958-17.951-39.958-40.095S20.758 9.55 42.825 9.55c22.068 0 39.958 17.95 39.958 40.095ZM47.085 38.35v5.956l.006.007c11.023.51 19.31 2.707 19.31 5.33 0 2.63-8.286 4.823-19.31 5.332v19.093h-9.822V54.976c-11.037-.516-19.343-2.708-19.343-5.338s8.3-4.821 19.343-5.33V38.35H23.682v-9.08h36.99v9.082H47.084Z" clip-rule="evenodd"/><path fill="#ffffff33" d="M116.724 31.75v9.631h9.327v7.226h-9.391V63.26c0 3.236 1.779 4.816 4.387 4.816 1.304 0 2.814-.413 4.047-1.032l2.332 7.155c-2.396.96-4.387 1.374-6.925 1.444-7.336.278-12.135-3.919-12.135-12.383V48.607h-6.308v-7.226h6.308v-8.734l8.358-.896Zm160.811 9.18.617 3.92c2.608-4.197 6.103-4.816 9.533-4.816 3.495 0 6.855 1.373 8.705 3.23l-3.771 7.29c-1.715-1.444-3.289-2.205-6.032-2.205-4.388 0-8.435 2.34-8.435 8.6v17.888h-8.364v-33.92l7.747.013Zm-20.499 13.002c-.546-4.403-3.976-6.608-8.775-6.608-4.522 0-8.229 2.205-9.462 6.608h18.237Zm-18.372 6.949c.546 4.196 4.182 7.226 10.079 7.226 3.084 0 7.131-1.173 9.051-3.165l5.345 5.299c-3.565 3.713-9.392 5.505-14.537 5.505-11.653 0-18.585-7.227-18.585-18.095 0-10.32 6.996-17.753 17.968-17.753 11.313 0 18.379 7.02 17.075 20.983h-26.396Zm-36.887-34.197v18.848c3.02-3.919 6.72-5.092 10.561-5.092 9.598 0 13.85 6.536 13.85 16.515v17.888h-8.364V57.026c0-6.195-3.224-8.806-7.683-8.806-4.94 0-8.364 4.197-8.364 9.29v17.34h-8.364V26.69l8.364-.006Zm-22.214 4.68v9.63h9.328v7.227h-9.392v14.652c0 3.236 1.786 4.815 4.387 4.815 1.305 0 2.814-.413 4.048-1.032l2.332 7.156c-2.397.96-4.388 1.373-6.926 1.444-7.336.277-12.134-3.926-12.134-12.383V48.22h-6.309v-7.227h6.309V32.26l8.357-.896Zm-23.107 22.568c-.546-4.403-3.976-6.608-8.775-6.608-4.523 0-8.229 2.205-9.463 6.608h18.238Zm-18.373 6.949c.547 4.196 4.183 7.226 10.08 7.226 3.083 0 7.13-1.173 9.051-3.165l5.345 5.299c-3.565 3.713-9.392 5.505-14.538 5.505-11.659 0-18.584-7.227-18.584-18.095 0-10.32 6.996-17.753 17.961-17.753 11.313 0 18.373 7.02 17.075 20.983h-26.39Z"/></svg>