<svg xmlns="http://www.w3.org/2000/svg" width="17" height="12" fill="currentColor" viewBox="0 0 17 12"><path d="M14.773.652C14.36.159 13.621.16 13.15.597L10.6 3.695c.72.815 1.2 2.603.984 3.669L15.34 8.77c.627.144 1.267-.224 1.379-.858.466-2.649-.218-5.2-1.946-7.261ZM2.382 3.483 6.14 4.89c-.215 1.065.264 2.852.983 3.667l-2.55 3.098c-.472.438-1.21.44-1.624-.054C1.222 9.542.538 6.99 1.004 4.342c.111-.635.751-1.003 1.378-.86ZM8.397 4.393a1.322 1.322 0 0 0-.934 1.62l.244.913a1.322 1.322 0 1 0 2.554-.684l-.245-.914a1.322 1.322 0 0 0-1.619-.935Z" fill='#fff'></path></svg>